<svg width="32" height="32" viewBox="0 0 32 32" fill="none" xmlns="http://www.w3.org/2000/svg">
<path d="M16 2.6665C23.3637 2.6665 29.3333 8.63604 29.3333 15.9998C29.3333 23.3636 23.3637 29.3332 16 29.3332C8.63616 29.3332 2.66663 23.3636 2.66663 15.9998C2.66663 8.63604 8.63616 2.6665 16 2.6665ZM20.2929 11.9594L14.3333 17.9189L11.7071 15.2928C11.3165 14.9022 10.6834 14.9022 10.2929 15.2928C9.90233 15.6833 9.90233 16.3164 10.2929 16.7069L13.6262 20.0402C14.0168 20.4308 14.6498 20.4308 15.0404 20.0402L21.707 13.3736C22.0976 12.9831 22.0976 12.3499 21.707 11.9594C21.3165 11.5689 20.6834 11.5689 20.2929 11.9594Z" fill="#1FCC92"/>
</svg>
