<svg width="48" height="48" viewBox="0 0 48 48" fill="none" xmlns="http://www.w3.org/2000/svg">
<rect width="48" height="48" rx="24" fill="white" fill-opacity="0.1"/>
<path d="M24 13C30.0751 13 35 17.9249 35 24C35 29.4904 30.9775 34.0412 25.7188 34.8664L25.7187 27.1799H28.2818L28.7695 24.0002L25.7188 24V21.9366C25.7188 21.9145 25.719 21.8925 25.7196 21.8705C25.741 21.0243 26.1796 20.2189 27.5114 20.2189H28.8984L28.8984 17.5117C28.8984 17.5117 27.6396 17.2969 26.4361 17.2969C23.9504 17.2969 22.3166 18.7872 22.2818 21.4882C22.2814 21.5176 22.2812 21.5471 22.2812 21.5767L22.2813 24H19.4883L19.4883 27.1799H22.2812L22.2813 34.8664C17.0225 34.0412 13 29.4904 13 24C13 17.9249 17.9249 13 24 13Z" fill="white"/>
</svg>
