<svg width="48" height="48" viewBox="0 0 48 48" fill="none" xmlns="http://www.w3.org/2000/svg">
<rect width="48" height="48" rx="24" fill="white" fill-opacity="0.1"/>
<path fill-rule="evenodd" clip-rule="evenodd" d="M15.4758 14.0014H32.5183V14.0001C32.9059 13.995 33.2797 14.144 33.5575 14.4143C33.8353 14.6846 33.9945 15.0541 34 15.4417V32.5567C33.9946 32.9445 33.8356 33.3143 33.5578 33.5849C33.28 33.8555 32.9061 34.0047 32.5183 33.9999H15.4758C15.0888 34.004 14.716 33.8543 14.4393 33.5837C14.1625 33.3131 14.0046 32.9437 14 32.5567V15.443C14.0047 15.0561 14.1628 14.687 14.4395 14.4167C14.7163 14.1464 15.089 13.997 15.4758 14.0014ZM28.1001 31H30.9988L31 25.87C31 23.3516 30.4583 21.4158 27.5204 21.4158C26.9692 21.3953 26.4227 21.525 25.9392 21.791C25.4557 22.057 25.0533 22.4494 24.7748 22.9264H24.7358V21.6484H21.9531V30.9997H24.8518V26.3737C24.8518 25.1538 25.0828 23.9723 26.5925 23.9723C28.0808 23.9723 28.1001 25.3682 28.1001 26.4526V31ZM17.7478 20.0863C18.0245 20.2715 18.3497 20.3702 18.6824 20.3702C18.9033 20.3701 19.1221 20.3265 19.3261 20.2418C19.5302 20.1571 19.7156 20.0329 19.8718 19.8764C20.028 19.7199 20.1518 19.5341 20.2363 19.3297C20.3208 19.1252 20.3643 18.9061 20.3643 18.6848C20.3642 18.3515 20.2655 18.0257 20.0806 17.7486C19.8957 17.4716 19.633 17.2556 19.3256 17.1282C19.0182 17.0007 18.68 16.9674 18.3537 17.0324C18.0274 17.0975 17.7277 17.2581 17.4925 17.4938C17.2573 17.7295 17.0971 18.0298 17.0323 18.3566C16.9674 18.6835 17.0008 19.0223 17.1282 19.3302C17.2555 19.6381 17.4712 19.9012 17.7478 20.0863ZM17.2301 31H20.1318V21.6484H17.2301V31Z" fill="white"/>
</svg>
