<svg width="28" height="28" viewBox="0 0 28 28" fill="none" xmlns="http://www.w3.org/2000/svg">
<path d="M14 0C21.7319 0 28 6.26801 28 14C28 21.7319 21.7319 28 14 28C6.26801 28 0 21.7319 0 14C0 6.26801 6.26801 0 14 0ZM18.5076 9.75754L12.25 16.015L9.49246 13.2576C9.08242 12.8475 8.41758 12.8475 8.00754 13.2576C7.59749 13.6676 7.59749 14.3324 8.00754 14.7424L11.5076 18.2424C11.9176 18.6525 12.5824 18.6525 12.9924 18.2424L19.9924 11.2424C20.4025 10.8324 20.4025 10.1676 19.9924 9.75754C19.5824 9.34749 18.9176 9.34749 18.5076 9.75754Z" fill="#34C759"/>
</svg>
