<svg width="30" height="27" viewBox="0 0 30 27" fill="none" xmlns="http://www.w3.org/2000/svg">
<path d="M13.4728 1.09498C14.9285 0.288704 16.7457 0.7572 17.6387 2.13131L17.7546 2.32428L28.6172 21.9359C28.8759 22.4029 29.0117 22.9282 29.0117 23.4621C29.0117 25.1292 27.7164 26.494 26.0773 26.6049L25.8617 26.6121H4.13959C3.60576 26.6121 3.08067 26.4765 2.61366 26.2179C1.15788 25.4118 0.590827 23.6227 1.28181 22.1368L1.38386 21.9361L12.2433 2.3246C12.5296 1.80749 12.9558 1.38139 13.4728 1.09498ZM15.0016 19.6025C14.2294 19.6025 13.6034 20.2284 13.6034 21.0005C13.6034 21.7728 14.2294 22.3987 15.0016 22.3987C15.7737 22.3987 16.3997 21.7728 16.3997 21.0005C16.3997 20.2284 15.7737 19.6025 15.0016 19.6025ZM14.9985 8.39724C14.2806 8.3975 13.689 8.93817 13.6085 9.63447L13.5991 9.79774L13.6016 16.799L13.611 16.9622C13.6922 17.6584 14.2841 18.1987 15.002 18.1984C15.7201 18.1983 16.3116 17.6576 16.3922 16.9612L16.4016 16.798L16.3991 9.79673L16.3896 9.63346C16.3085 8.93722 15.7165 8.39699 14.9985 8.39724Z" fill="#FF9500"/>
</svg>
