<svg width="48" height="48" viewBox="0 0 48 48" fill="none" xmlns="http://www.w3.org/2000/svg">
<rect width="48" height="48" rx="24" fill="white" fill-opacity="0.1"/>
<path d="M32.4972 22.0916C32.3348 22.1075 32.1719 22.1158 32.0088 22.1166C31.1282 22.1167 30.2614 21.8961 29.4867 21.4746C28.712 21.0531 28.0537 20.444 27.5714 19.7023V27.9236C27.5714 29.1254 27.2174 30.3002 26.5542 31.2995C25.891 32.2987 24.9483 33.0776 23.8454 33.5375C22.7426 33.9974 21.529 34.1177 20.3582 33.8832C19.1874 33.6488 18.1119 33.0701 17.2678 32.2203C16.4237 31.3705 15.8489 30.2878 15.616 29.1091C15.3831 27.9303 15.5026 26.7086 15.9594 25.5983C16.4163 24.488 17.1899 23.539 18.1824 22.8713C19.175 22.2036 20.3419 21.8472 21.5357 21.8472C21.6617 21.8472 21.7848 21.8586 21.9087 21.8665V24.8608C21.7848 24.8459 21.6631 24.8231 21.5357 24.8231C20.7187 24.8231 19.9352 25.1498 19.3575 25.7314C18.7798 26.313 18.4552 27.1018 18.4552 27.9243C18.4552 28.7468 18.7798 29.5356 19.3575 30.1172C19.9352 30.6988 20.7187 31.0256 21.5357 31.0256C23.2373 31.0256 24.74 29.6759 24.74 27.9628L24.7698 14H27.6153C27.7453 15.2447 28.3057 16.4038 29.1987 17.2746C30.0916 18.1454 31.2601 18.6725 32.5 18.7638V22.0916" fill="white"/>
</svg>
