<svg width="48" height="48" viewBox="0 0 48 48" fill="none" xmlns="http://www.w3.org/2000/svg">
<rect width="48" height="48" rx="24" fill="white" fill-opacity="0.1"/>
<path fill-rule="evenodd" clip-rule="evenodd" d="M33.3904 15.5506C34.4184 15.8471 35.2289 16.7153 35.5057 17.8165C36.0197 19.8282 35.9999 24.0212 35.9999 24.0212C35.9999 24.0212 35.9999 28.1929 35.5057 30.2047C35.2289 31.3059 34.4184 32.1741 33.3904 32.4706C31.5123 33 23.9999 33 23.9999 33C23.9999 33 16.5074 33 14.6095 32.4494C13.5815 32.1529 12.771 31.2847 12.4942 30.1835C12 28.1929 12 24 12 24C12 24 12 19.8282 12.4942 17.8165C12.771 16.7153 13.6013 15.8259 14.6095 15.5294C16.4876 15 23.9999 15 23.9999 15C23.9999 15 31.5123 15 33.3904 15.5506ZM21 20L28 24L21 28V20Z" fill="white"/>
</svg>
