<svg width="48" height="48" viewBox="0 0 48 48" fill="none" xmlns="http://www.w3.org/2000/svg">
<rect width="48" height="48" rx="24" fill="white" fill-opacity="0.1"/>
<path d="M33.9765 28.3137C33.8979 28.3182 33.8674 28.387 33.8238 28.4329C32.9768 29.3267 31.9772 30.0418 30.8814 30.5506C28.1922 31.7883 25.4595 31.88 22.6917 30.8807C22.4516 30.789 22.1897 30.7753 21.9408 30.844C21.5741 30.9403 21.2118 31.0549 20.8495 31.1694C19.7911 31.5096 18.7157 31.6658 17.6148 31.4469C17.6031 31.4447 17.5604 31.4352 17.5515 31.4304C17.4893 31.3968 17.4558 31.3562 17.5361 31.284C17.5972 31.2428 17.6583 31.1969 17.7195 31.1602C18.2913 30.7706 18.8283 30.3443 19.1819 29.7163C19.4744 29.1938 19.4263 28.8912 19.0597 28.5016C16.9948 26.3288 16.0824 23.7251 16.5364 20.6585C16.7939 18.9212 17.5535 17.4269 18.6492 16.1251C19.3128 15.3366 20.103 14.6994 20.9673 14.1677C21.0154 14.1356 21.094 14.1265 21.1027 14.0439C21.0896 13.9981 21.0546 14.0119 21.0284 14.0119C19.5572 14.0119 18.086 13.9798 16.6193 14.0211C15.218 14.0623 14 15.2036 14 16.8401C14.0088 21.6257 14 26.4067 14 31.1878C14 32.6683 15.0783 33.9106 16.4883 33.9702C17.6801 34.016 29.7813 33.9977 31.3528 33.9885H31.3747C32.8328 33.9748 34.0027 32.728 33.9939 31.1969V28.5154C33.9939 28.4466 34.0158 28.3779 33.9765 28.3137Z" fill="white"/>
<path d="M19.6883 19.7967C19.5224 19.838 19.3915 19.9801 19.3522 20.1543C19.2955 20.4109 19.4482 20.6722 19.6971 20.7318C19.8019 20.7547 19.911 20.7685 20.0201 20.7685C20.4916 20.7731 20.9674 20.7685 21.4389 20.7731C21.4913 20.7776 21.5524 20.741 21.5961 20.8189C21.5568 20.8693 21.5175 20.9243 21.4782 20.9793C20.8015 21.8777 20.1249 22.7808 19.4526 23.6792C19.2867 23.9038 19.1994 24.1514 19.3216 24.4264C19.4438 24.7015 19.6927 24.7565 19.9459 24.7702C20.151 24.784 20.3519 24.7748 20.557 24.7748C21.2642 24.7748 21.9671 24.7793 22.6743 24.7702C23.0497 24.7657 23.2505 24.5227 23.2112 24.1606C23.1763 23.8718 22.9886 23.7205 22.6437 23.7159C22.0282 23.7114 21.4083 23.7159 20.7491 23.7159C20.8189 23.6151 20.8626 23.5555 20.9106 23.4959C21.4825 22.7396 22.0543 21.9786 22.6262 21.2131C22.792 20.9885 22.958 20.7639 23.0627 20.5026C23.1806 20.2001 23.054 19.9114 22.7572 19.8059C22.6218 19.7692 22.4865 19.7509 22.3468 19.7555C21.5697 19.7509 20.7884 19.7509 20.0113 19.7555C19.9022 19.7555 19.793 19.7692 19.6883 19.7967Z" fill="white"/>
<path d="M30.8638 24.8986C31.9072 24.7886 32.5838 23.968 32.5489 22.8083C32.5139 21.6624 31.702 20.8785 30.5888 20.9152C29.5411 20.9472 28.8034 21.8273 28.8383 23.0054C28.8209 24.1514 29.7245 25.0178 30.8638 24.8986ZM29.934 22.8954C29.934 22.3224 30.2657 21.9465 30.7372 21.974C30.9423 21.9786 31.1345 22.0886 31.2567 22.2628C31.5055 22.6112 31.5055 23.198 31.2523 23.5463C31.213 23.5921 31.1738 23.638 31.1257 23.6747C30.8114 23.9313 30.3617 23.8672 30.1217 23.5371C29.9908 23.3492 29.9253 23.1246 29.934 22.8954Z" fill="white"/>
<path d="M24.3637 24.8161C24.8483 24.9811 25.2979 24.9215 25.6951 24.5823C25.7999 24.4952 25.8304 24.5135 25.9047 24.6098C26.0488 24.8069 26.2976 24.8756 26.5158 24.7886C26.7297 24.7198 26.8782 24.509 26.8782 24.2706C26.8869 23.3538 26.8913 22.437 26.8782 21.5203C26.8738 21.1536 26.5507 20.9198 26.2059 20.9931C26.0269 21.0298 25.9177 21.1627 25.8129 21.3048C25.2673 20.8051 24.6648 20.773 24.0711 21.1443C23.3552 21.5844 23.0889 22.2994 23.1806 23.1383C23.2679 23.913 23.5866 24.5502 24.3637 24.8161ZM25.0796 21.974C25.2848 21.9786 25.4769 22.084 25.5991 22.2628C25.8435 22.6112 25.8435 23.1842 25.5991 23.5326C25.5555 23.5921 25.5074 23.6426 25.455 23.6839C25.1364 23.9314 24.6867 23.8626 24.451 23.5326C24.3374 23.3721 24.2764 23.1796 24.2676 22.9779C24.2633 22.3316 24.5995 21.942 25.0796 21.974Z" fill="white"/>
<path d="M27.3583 24.2201C27.3583 24.5089 27.5242 24.7519 27.7425 24.8114C27.7949 24.8252 27.8516 24.8297 27.904 24.8297C28.2139 24.8205 28.4584 24.5501 28.454 24.2247C28.4583 23.5142 28.454 22.8037 28.454 22.0932C28.454 21.3781 28.4583 20.6584 28.454 19.9434C28.454 19.5767 28.2313 19.3475 27.8996 19.3521C27.5765 19.3521 27.3626 19.5813 27.3582 19.9343C27.3539 20.1497 27.3582 20.3606 27.3582 20.576L27.3583 24.2201Z" fill="white"/>
</svg>
