<svg width="24" height="24" viewBox="0 0 24 24" fill="none" xmlns="http://www.w3.org/2000/svg">
<path d="M17.8696 14.1154C17.8696 9.07538 15.5217 6.84615 15.5217 6.84615C14.3705 9.61848 11.9021 10.0604 9.68502 10.4574C7.38064 10.8699 5.34783 11.2339 5.34783 14.1154H4.56522V14.9231C4.56522 15.6836 4.84697 16.073 5.08057 16.284C5.20759 16.3987 5.33541 16.4728 5.42934 16.5173C5.47567 16.5392 5.51163 16.5528 5.53202 16.56L5.54179 16.5633L5.54679 16.5649L5.95442 16.6701L6.08959 17.0886L6.09125 17.0936C6.09308 17.099 6.09642 17.1087 6.10132 17.1225C6.11113 17.1501 6.12713 17.1938 6.14969 17.2513C6.19487 17.3665 6.26598 17.5362 6.36575 17.7422C6.56617 18.1558 6.87733 18.7056 7.31861 19.2522C8.19634 20.3392 9.55912 21.3846 11.6087 21.3846H16.0093C14.8972 22.311 13.4416 23 11.6087 23C8.96262 23 7.19496 21.6223 6.11617 20.2863C5.57919 19.6213 5.20557 18.9595 4.96577 18.4646C4.87307 18.2732 4.79964 18.1053 4.74394 17.9698C4.54886 17.8744 4.29973 17.7253 4.04987 17.4997C3.50086 17.0039 3 16.1817 3 14.9231V10.8846C3 5.23077 7.69565 2 11.6087 2C14.7391 2 15.5217 3.61538 15.5217 3.61538C18.6522 3.61538 20.2174 7.65385 20.2174 10.8846V12.7159C20.6853 12.9952 21 13.5172 21 14.1154V14.9231C21 15.5405 20.6648 16.0767 20.1719 16.3486C19.8837 18.2857 18.2618 19.7692 16.3043 19.7692H12.3913C12.3309 19.7692 12.2721 19.7622 12.2156 19.7488C12.1457 19.7622 12.0737 19.7692 12 19.7692H11.2174C10.5694 19.7692 10.0435 19.2265 10.0435 18.5577C10.0435 17.8889 10.5694 17.3462 11.2174 17.3462H12C12.5108 17.3462 12.9458 17.6834 13.107 18.1538H16.3043C17.3265 18.1538 18.1962 17.4795 18.5186 16.5385H17.8696V14.1154Z" fill="#3A3A3C"/>
</svg>
