<svg width="65" height="64" viewBox="0 0 65 64" fill="none" xmlns="http://www.w3.org/2000/svg">
<circle opacity="0.2" cx="32.6667" cy="32" r="24" fill="url(#paint0_linear_9853_2187)"/>
<path d="M23.4837 9.83078C26.3948 8.62373 29.5153 8.00244 32.6666 8.00244C35.818 8.00244 38.9385 8.62373 41.8495 9.83078C44.7606 11.0378 47.4051 12.8069 49.6319 15.0369C50.4124 15.8185 50.4114 17.0849 49.6298 17.8654C48.8482 18.6458 47.5819 18.6449 46.8014 17.8633C44.9462 16.0054 42.7428 14.5314 40.3175 13.5257C37.8921 12.5201 35.2922 12.0024 32.6666 12.0024C30.041 12.0024 27.4412 12.5201 25.0158 13.5257C22.5904 14.5314 20.3871 16.0054 18.5319 17.8633L18.5288 17.8664L10.0288 26.3414C9.64227 26.7268 9.13756 26.9213 8.63174 26.925C8.57868 26.9254 8.52561 26.9237 8.47265 26.9199C8.27663 26.906 8.08841 26.8638 7.91205 26.7974C7.65239 26.6999 7.40896 26.5465 7.20034 26.3372C7.00314 26.1394 6.85592 25.9107 6.75866 25.6667C6.66703 25.4374 6.61664 25.1871 6.61664 24.925V12.925C6.61664 11.8205 7.51207 10.925 8.61664 10.925C9.72121 10.925 10.6166 11.8205 10.6166 12.925V20.1067L15.7014 15.0369L15.703 15.0353C17.9294 12.8061 20.5733 11.0375 23.4837 9.83078Z" fill="url(#paint1_linear_9853_2187)"/>
<path d="M44.7167 37.075C43.6122 37.075 42.7167 37.9704 42.7167 39.075C42.7167 40.1795 43.6122 41.075 44.7167 41.075H51.8781L46.8014 46.1368C44.9462 47.9947 42.7428 49.4687 40.3175 50.4743C37.8921 51.48 35.2922 51.9976 32.6666 51.9976C30.041 51.9976 27.4412 51.48 25.0158 50.4743C22.5904 49.4687 20.3871 47.9947 18.5319 46.1368C17.7514 45.3551 16.4851 45.3542 15.7035 46.1347C14.9218 46.9152 14.9209 48.1815 15.7014 48.9631C17.9281 51.1931 20.5727 52.9622 23.4837 54.1693C26.3948 55.3763 29.5153 55.9976 32.6666 55.9976C35.818 55.9976 38.9385 55.3763 41.8495 54.1693C44.76 52.9625 47.404 51.1939 49.6304 48.9646L49.6319 48.9631L54.7167 43.8932V51.075C54.7167 52.1795 55.6122 53.075 56.7167 53.075C57.8213 53.075 58.7167 52.1795 58.7167 51.075V39.075C58.7167 38.761 58.6444 38.464 58.5155 38.1996C58.394 37.9504 58.2223 37.7303 58.0135 37.5523C57.8658 37.4262 57.7041 37.3251 57.534 37.249C57.2845 37.1372 57.0079 37.075 56.7167 37.075H44.7167Z" fill="url(#paint2_linear_9853_2187)"/>
<path d="M34.6667 22C34.6667 20.8954 33.7713 20 32.6667 20C31.5621 20 30.6667 20.8954 30.6667 22H30.4167C28.8485 22 27.3729 22.6657 26.306 23.8037C25.2432 24.9373 24.6667 26.4489 24.6667 28C24.6667 29.5511 25.2432 31.0627 26.306 32.1963C27.3729 33.3343 28.8485 34 30.4167 34H34.9167C35.3376 34 35.7696 34.1772 36.1093 34.5395C36.453 34.9061 36.6667 35.4294 36.6667 36C36.6667 36.5706 36.453 37.0939 36.1093 37.4605C35.7696 37.8228 35.3376 38 34.9167 38H28.1667C27.0621 38 26.1667 38.8954 26.1667 40C26.1667 41.1046 27.0621 42 28.1667 42H30.6667C30.6667 43.1046 31.5621 44 32.6667 44C33.7713 44 34.6667 43.1046 34.6667 42H34.9167C36.4849 42 37.9605 41.3343 39.0274 40.1963C40.0902 39.0627 40.6667 37.5511 40.6667 36C40.6667 34.4489 40.0902 32.9373 39.0274 31.8037C37.9605 30.6657 36.4849 30 34.9167 30H30.4167C29.9957 30 29.5637 29.8228 29.2241 29.4605C28.8804 29.0939 28.6667 28.5706 28.6667 28C28.6667 27.4294 28.8804 26.9061 29.2241 26.5395C29.5637 26.1772 29.9957 26 30.4167 26H37.1667C38.2713 26 39.1667 25.1046 39.1667 24C39.1667 22.8954 38.2713 22 37.1667 22H34.6667Z" fill="url(#paint3_linear_9853_2187)"/>
<defs>
<linearGradient id="paint0_linear_9853_2187" x1="32.6667" y1="8" x2="32.6667" y2="56" gradientUnits="userSpaceOnUse">
<stop stop-color="#30E7AA"/>
<stop offset="1" stop-color="#1FCC92"/>
</linearGradient>
<linearGradient id="paint1_linear_9853_2187" x1="32.6667" y1="8.00244" x2="32.6667" y2="55.9976" gradientUnits="userSpaceOnUse">
<stop stop-color="#30E7AA"/>
<stop offset="1" stop-color="#1FCC92"/>
</linearGradient>
<linearGradient id="paint2_linear_9853_2187" x1="32.6667" y1="8.00244" x2="32.6667" y2="55.9976" gradientUnits="userSpaceOnUse">
<stop stop-color="#30E7AA"/>
<stop offset="1" stop-color="#1FCC92"/>
</linearGradient>
<linearGradient id="paint3_linear_9853_2187" x1="32.6667" y1="8.00244" x2="32.6667" y2="55.9976" gradientUnits="userSpaceOnUse">
<stop stop-color="#30E7AA"/>
<stop offset="1" stop-color="#1FCC92"/>
</linearGradient>
</defs>
</svg>
