<svg width="48" height="48" viewBox="0 0 48 48" fill="none" xmlns="http://www.w3.org/2000/svg">
<path opacity="0.2" d="M8.25 8.25V36.75L11.25 39.75H39.75V8.25H8.25Z" fill="url(#paint0_linear_9853_270)"/>
<path d="M9.75 6.75C8.95435 6.75 8.19129 7.06607 7.62868 7.62868C7.06607 8.19129 6.75 8.95435 6.75 9.75V26.8688C6.75 27.6972 7.42157 28.3688 8.25 28.3688C9.07843 28.3688 9.75 27.6972 9.75 26.8688V9.75H38.25V38.25H25.425C24.5966 38.25 23.925 38.9216 23.925 39.75C23.925 40.5784 24.5966 41.25 25.425 41.25H38.25C39.0456 41.25 39.8087 40.9339 40.3713 40.3713C40.9339 39.8087 41.25 39.0456 41.25 38.25V9.75C41.25 8.95435 40.9339 8.19129 40.3713 7.62868C39.8087 7.06607 39.0456 6.75 38.25 6.75H9.75Z" fill="url(#paint1_linear_9853_270)"/>
<path d="M25.0607 29.5607C25.6464 28.9749 25.6464 28.0251 25.0607 27.4393C24.4749 26.8536 23.5251 26.8536 22.9393 27.4393L12 38.3787L7.06066 33.4393C6.47487 32.8536 5.52513 32.8536 4.93934 33.4393C4.35355 34.0251 4.35355 34.9749 4.93934 35.5607L10.9393 41.5607C11.5251 42.1464 12.4749 42.1464 13.0607 41.5607L25.0607 29.5607Z" fill="url(#paint2_linear_9853_270)"/>
<path d="M13.5 15C13.5 14.1716 14.1716 13.5 15 13.5H33C33.8284 13.5 34.5 14.1716 34.5 15C34.5 15.8284 33.8284 16.5 33 16.5H15C14.1716 16.5 13.5 15.8284 13.5 15Z" fill="url(#paint3_linear_9853_270)"/>
<path d="M15 19.5C14.1716 19.5 13.5 20.1716 13.5 21C13.5 21.8284 14.1716 22.5 15 22.5H33C33.8284 22.5 34.5 21.8284 34.5 21C34.5 20.1716 33.8284 19.5 33 19.5H15Z" fill="url(#paint4_linear_9853_270)"/>
<defs>
<linearGradient id="paint0_linear_9853_270" x1="24" y1="8.25" x2="24" y2="39.75" gradientUnits="userSpaceOnUse">
<stop stop-color="#8F8DFF"/>
<stop offset="1" stop-color="#5657D6"/>
</linearGradient>
<linearGradient id="paint1_linear_9853_270" x1="22.875" y1="6.75" x2="22.875" y2="42" gradientUnits="userSpaceOnUse">
<stop stop-color="#8F8DFF"/>
<stop offset="1" stop-color="#5657D6"/>
</linearGradient>
<linearGradient id="paint2_linear_9853_270" x1="22.875" y1="6.75" x2="22.875" y2="42" gradientUnits="userSpaceOnUse">
<stop stop-color="#8F8DFF"/>
<stop offset="1" stop-color="#5657D6"/>
</linearGradient>
<linearGradient id="paint3_linear_9853_270" x1="22.875" y1="6.75" x2="22.875" y2="42" gradientUnits="userSpaceOnUse">
<stop stop-color="#8F8DFF"/>
<stop offset="1" stop-color="#5657D6"/>
</linearGradient>
<linearGradient id="paint4_linear_9853_270" x1="22.875" y1="6.75" x2="22.875" y2="42" gradientUnits="userSpaceOnUse">
<stop stop-color="#8F8DFF"/>
<stop offset="1" stop-color="#5657D6"/>
</linearGradient>
</defs>
</svg>
