<svg width="64" height="64" viewBox="0 0 64 64" fill="none" xmlns="http://www.w3.org/2000/svg">
<g opacity="0.2">
<path d="M44 21C44 25.9706 35.0457 30 24 30C12.9543 30 4 25.9706 4 21C4 16.0294 12.9543 12 24 12C35.0457 12 44 16.0294 44 21Z" fill="url(#paint0_linear_9853_1458)"/>
<path d="M60 33C60 28.65 53.125 25.025 44 24.175V31C44 35.5 36.7 39.2251 27.125 39.9001C30.6 41.2001 35.1 42 40 42C51.05 42 60 37.975 60 33Z" fill="url(#paint1_linear_9853_1458)"/>
</g>
<path fill-rule="evenodd" clip-rule="evenodd" d="M9.03714 12.8122C5.29265 14.4972 2 17.2375 2 21V31C2 34.7641 5.29057 37.5046 9.03565 39.1895C11.5478 40.3198 14.6152 41.153 18 41.6074V43C18 46.7641 21.2906 49.5046 25.0357 51.1895C28.9676 52.9585 34.2596 54 40 54C45.7404 54 51.0324 52.9585 54.9643 51.1895C58.7094 49.5046 62 46.7641 62 43V33.0262L62.0001 32.9999C62.0001 29.6918 59.4286 27.1786 56.378 25.5183C53.6247 24.0198 50.0218 22.9376 46 22.391V21C46 17.2375 42.7073 14.4972 38.9629 12.8122C35.0306 11.0427 29.7387 10 24 10C18.2613 10 12.9694 11.0427 9.03714 12.8122ZM10.6786 16.4599C7.1845 18.0322 6 19.792 6 21C6 22.208 7.1845 23.9678 10.6786 25.5401C12.2644 26.2537 14.1725 26.8486 16.3146 27.2746C16.3639 27.2824 16.4127 27.292 16.4608 27.3033C18.7476 27.7477 21.296 28 24 28C26.704 28 29.2524 27.7477 31.5392 27.3033C31.5873 27.292 31.6361 27.2824 31.6854 27.2746C33.8275 26.8486 35.7356 26.2537 37.3214 25.5401C40.8155 23.9678 42 22.208 42 21C42 19.792 40.8155 18.0322 37.3214 16.4599C34.015 14.972 29.307 14 24 14C18.693 14 13.985 14.972 10.6786 16.4599ZM30 31.6069C28.0869 31.864 26.0726 32 24 32C21.9274 32 19.9131 31.864 18 31.6069V37.5677C19.8712 37.8464 21.888 38 24 38C26.112 38 28.1288 37.8464 30 37.5677V31.6069ZM34 36.7261V30.8585C35.8141 30.4155 37.4846 29.853 38.9629 29.1878C40.0344 28.7056 41.069 28.137 42 27.4827V31C42 32.2109 40.8156 33.9704 37.3232 35.5417C36.3339 35.9868 35.219 36.3857 34 36.7261ZM30 42.8606C28.8778 42.5884 27.8118 42.2718 26.8139 41.9156C25.8911 41.9714 24.9517 42 24 42C23.3267 42 22.6595 41.9857 22 41.9575V43C22 44.2109 23.1844 45.9704 26.6768 47.5417C27.6661 47.9868 28.781 48.3857 30 48.7261V42.8606ZM34 49.5677V43.6059C35.9116 43.8627 37.9262 43.9999 40.0001 43.9999C42.0728 43.9999 44.0871 43.8642 46 43.6074V49.5677C44.1288 49.8464 42.112 50 40 50C37.888 50 35.8712 49.8464 34 49.5677ZM14 30.8585C12.1859 30.4155 10.5154 29.853 9.03714 29.1878C7.96556 28.7056 6.93099 28.137 6 27.4827V31C6 32.2109 7.18443 33.9704 10.6768 35.5417C11.6661 35.9868 12.781 36.3857 14 36.7261V30.8585ZM58 32.9897L58 33V33.014C57.9908 34.2244 56.8021 35.9765 53.3232 37.5417C51.7425 38.2528 49.8411 38.846 47.7066 39.2714C47.6431 39.2807 47.5806 39.293 47.5193 39.3081C45.238 39.7495 42.6966 39.9999 40.0001 39.9999C39.042 39.9999 38.1022 39.9679 37.1859 39.9068C37.8051 39.6834 38.3988 39.444 38.9643 39.1895C42.7094 37.5046 46 34.7641 46 31V26.4316C49.4283 26.9481 52.346 27.8778 54.4658 29.0316C57.1254 30.4791 57.9944 31.9485 58 32.9897ZM50 42.8599V48.7261C51.219 48.3857 52.3339 47.9868 53.3232 47.5417C56.8156 45.9704 58 44.2109 58 43V39.4854C57.0696 40.1393 56.0356 40.7075 54.9644 41.1895C53.4858 41.8547 51.8148 42.4171 50 42.8599Z" fill="url(#paint2_linear_9853_1458)"/>
<defs>
<linearGradient id="paint0_linear_9853_1458" x1="32" y1="12" x2="32" y2="42" gradientUnits="userSpaceOnUse">
<stop stop-color="#FFB44B"/>
<stop offset="1" stop-color="#FF9500"/>
</linearGradient>
<linearGradient id="paint1_linear_9853_1458" x1="32" y1="12" x2="32" y2="42" gradientUnits="userSpaceOnUse">
<stop stop-color="#FFB44B"/>
<stop offset="1" stop-color="#FF9500"/>
</linearGradient>
<linearGradient id="paint2_linear_9853_1458" x1="32" y1="10" x2="32" y2="54" gradientUnits="userSpaceOnUse">
<stop stop-color="#FFB44B"/>
<stop offset="1" stop-color="#FF9500"/>
</linearGradient>
</defs>
</svg>
