<svg width="80" height="80" viewBox="0 0 80 80" fill="none" xmlns="http://www.w3.org/2000/svg">
<circle cx="40" cy="40" r="33" fill="url(#paint0_linear_8638_91432)"/>
<path d="M54.2988 6.08339C53.8814 6.29126 53.6177 6.71616 53.6177 7.1811V13.5337C53.6177 22.9263 58.6278 27.7254 66.1636 32.3191C66.5593 32.5603 67.0584 32.5603 67.4541 32.3191C74.99 27.7254 80 22.9263 80 13.5337V7.1811C80 6.71616 79.7364 6.29126 79.3189 6.08339L67.3596 0.129455C67.0129 -0.0431518 66.6048 -0.0431518 66.2581 0.129455L54.2988 6.08339Z" fill="url(#paint1_linear_8638_91432)"/>
<path opacity="0.05" d="M58.0106 11.5V4.20587L54.2933 6.07222C53.8792 6.28018 53.6177 6.70526 53.6177 7.17039V13.5257C53.6177 22.9223 58.5875 27.7234 66.0628 32.319C66.4553 32.5603 66.9503 32.5603 67.3427 32.319C68.4314 31.6497 69.4664 30.9759 70.4412 30.2844C62.974 25.6915 58.0106 20.8905 58.0106 11.5Z" fill="url(#paint2_linear_8638_91432)"/>
<path d="M66.6176 23.3231C71.2633 23.3231 75.0294 19.5572 75.0294 14.9116C75.0294 10.266 71.2633 6.5 66.6176 6.5C61.9719 6.5 58.2059 10.266 58.2059 14.9116C58.2059 19.5572 61.9719 23.3231 66.6176 23.3231Z" fill="white"/>
<path d="M66.0526 18.353C65.8248 18.353 65.5968 18.265 65.4229 18.089L62.6725 15.3051C62.3248 14.9531 62.3248 14.3824 62.6725 14.0306C63.0204 13.6786 63.5841 13.6786 63.9318 14.0306L66.0525 16.1771L69.6858 12.4993C70.0336 12.1474 70.5973 12.1474 70.9451 12.4993C71.2928 12.8513 71.2928 13.422 70.9451 13.7739L66.6822 18.0889C66.5084 18.265 66.2804 18.353 66.0526 18.353Z" fill="url(#paint3_linear_8638_91432)"/>
<path d="M54.4238 55.248C52.6054 57.0781 50.1877 58.0861 47.6166 58.0861C47.4981 58.0861 47.3793 58.0839 47.2605 58.0794L44.9278 57.9927C44.8049 57.9882 44.6824 57.986 44.5599 57.986C42.7544 57.986 41.0229 58.9771 39.5088 59.8791L48.8826 69.3141L63.6238 54.4766L59.6599 50.4867L54.4238 55.248Z" fill="#FFECE9"/>
<path d="M53.1522 79.6506L46.6106 73.1122C46.1446 72.6464 46.1446 71.8913 46.6106 71.4255L65.1736 52.8714C65.6396 52.4056 66.3952 52.4056 66.8612 52.8714L73.4027 59.4099C73.8688 59.8757 73.8688 60.6308 73.4027 61.0966L54.8398 79.6506C54.3737 80.1164 53.6182 80.1164 53.1522 79.6506Z" fill="url(#paint4_linear_8638_91432)"/>
<path opacity="0.05" d="M53.5347 73.1123C53.0703 72.6465 53.0703 71.8913 53.5347 71.4255L69.4116 55.5012L66.7898 52.8714C66.3254 52.4056 65.5725 52.4056 65.1081 52.8714L46.6094 71.4255C46.145 71.8913 46.145 72.6465 46.6094 73.1123L53.1283 79.6506C53.5927 80.1164 54.3456 80.1164 54.81 79.6506L57.4317 77.0209L53.5347 73.1123Z" fill="url(#paint5_linear_8638_91432)"/>
<path d="M66.0679 39.6102C64.9378 38.4068 63.1788 38.1714 61.8027 38.9046C61.665 38.9779 61.5121 38.8312 61.5859 38.6942C62.3062 37.3567 62.0997 35.6548 60.9667 34.5264C59.834 33.3982 58.1259 33.1924 56.7833 33.9092C56.6474 33.9818 56.4968 33.8317 56.5696 33.6964C57.2893 32.3591 57.0827 30.6578 55.95 29.5294C54.817 28.4009 53.1084 28.1954 51.7656 28.9127C51.628 28.9862 51.4807 28.8339 51.5543 28.6967C52.2915 27.324 52.0535 25.5684 50.8401 24.4429C49.4326 23.1372 47.2167 23.2375 45.8566 24.5923L45.5456 24.9021L45.2779 24.9442L40.4717 29.2333L40.501 29.4286L43.1073 32.0247C43.7844 32.699 44.6888 33.6143 44.663 34.5677C44.638 35.4901 44.2471 36.3415 43.5613 36.9672C42.9552 37.5198 42.159 37.824 41.3194 37.824C40.3842 37.824 39.4666 37.4445 38.8025 36.7831L38.5771 37.0077L39.5285 37.9553C40.1625 38.5868 40.5575 39.4311 40.5763 40.324C40.5998 41.4402 40.0864 42.4753 39.1588 43.1456C38.724 43.4597 38.2136 43.6639 37.6818 43.738C36.5969 43.8892 35.5486 43.5359 34.7937 42.784L33.156 41.1527L32.9306 41.3773C33.7288 42.1723 34.0786 43.2907 33.858 44.4357C33.7814 44.8329 33.6294 45.2149 33.41 45.5552C32.7023 46.6532 31.4955 47.2354 30.2288 47.1244C29.4169 47.0532 28.6635 46.6718 28.0872 46.0976L26.1767 44.1947L25.9507 44.4199C26.6526 45.127 27.0033 46.0853 26.9167 47.0907C26.8628 47.7165 26.6325 48.3207 26.2505 48.8204C25.5921 49.6819 24.601 50.166 23.542 50.166C22.6437 50.166 21.7989 49.8192 21.1608 49.1907L15.8762 54.4545L30.2838 68.8053L37.8662 61.2528C39.7996 59.327 42.4508 58.2899 45.1834 58.3904L47.5276 58.4768C50.26 58.5775 52.9112 57.5404 54.8446 55.6146L65.9173 44.5855C67.281 43.2277 67.3849 41.0127 66.0679 39.6102Z" fill="white"/>
<path opacity="0.05" d="M43.6157 32.1959C44.2225 32.8003 44.5619 33.5683 44.64 34.3572L51.8447 27.1809C51.8339 26.2862 51.4876 25.3946 50.8021 24.7118C49.4094 23.3246 47.1514 23.3246 45.7588 24.7118L40.9304 29.5212L43.6157 32.1959Z" fill="url(#paint6_linear_8638_91432)"/>
<path opacity="0.05" d="M27.2037 51.8273L31.9921 47.1336C30.6967 47.6281 29.1709 47.3615 28.1273 46.3384L26.1301 44.3806L26.1293 44.3814C27.5405 45.7799 27.5184 48.0399 26.0755 49.4107C24.6645 50.7512 22.4204 50.7377 21.0251 49.3849L15.8761 54.4318L30.5395 68.8054L35.1681 64.2684L27.2037 56.4615C25.8982 55.1818 25.8982 53.107 27.2037 51.8273Z" fill="url(#paint7_linear_8638_91432)"/>
<path d="M43.7713 32.2009L35.5197 24.0402C34.1291 22.665 31.8747 22.665 30.4843 24.0402C29.0938 25.4154 29.0938 27.645 30.4843 29.0201C29.0938 27.6448 26.8395 27.6448 25.4489 29.0201C24.0584 30.3953 24.0584 32.6249 25.4489 33.9999C24.0584 32.6247 21.8039 32.6247 20.4134 33.9999C19.0228 35.3751 19.0228 37.6047 20.4134 38.9798L21.9545 40.5039C20.564 39.1287 18.3097 39.1287 16.9191 40.5039C15.5286 41.8791 15.5286 44.1087 16.9191 45.4838L20.9349 49.4552C22.31 50.8153 24.5339 50.8325 25.9306 49.494C27.3584 48.1256 27.3763 45.8658 25.9704 44.4754L27.9541 46.4372C29.3293 47.7972 31.5532 47.8145 32.9498 46.476C34.3776 45.1076 34.3956 42.8478 32.9897 41.4574L34.6337 43.0831C36.0088 44.4431 38.2327 44.4604 39.6293 43.1219C41.0572 41.7535 41.0751 39.4936 39.6692 38.1032L38.6576 37.1028C40.0177 38.4477 42.2368 38.5754 43.6555 37.2909C45.1608 35.9276 45.1996 33.6135 43.7713 32.2009Z" fill="#FFECE9"/>
<path d="M41.9043 22.5H35.6407C34.5806 22.5 33.7213 23.3726 33.7213 24.4489V25.258C33.7213 27.6692 35.6463 29.6239 38.021 29.6239L40.9141 29.6082L45.2965 25.1581C44.9029 23.6309 43.5359 22.5 41.9043 22.5Z" fill="#FFECE9"/>
<path opacity="0.05" d="M41.7394 35.6281L33.5249 27.5696C32.2588 26.3276 32.1436 24.3886 33.1715 23.015C32.1863 22.9578 31.1815 23.2969 30.4288 24.0355C29.0312 25.4065 29.0312 27.6293 30.4288 29.0004L38.6434 37.0588C40.0105 38.3999 42.2409 38.5272 43.6668 37.2465C43.8545 37.0779 44.0173 36.8936 44.1587 36.6989C43.2759 36.6438 42.4053 36.2811 41.7394 35.6281Z" fill="url(#paint8_linear_8638_91432)"/>
<path opacity="0.05" d="M38.0852 41.371L28.8694 32.2784C27.6929 31.1177 27.5126 29.3507 28.3199 27.9992C27.2809 27.8878 26.2021 28.2232 25.4057 29.009C24.0104 30.3856 24.0104 32.6175 25.4057 33.994L34.6215 43.0867C36.0014 44.4481 38.233 44.4654 39.6343 43.1255C39.8704 42.8998 40.0642 42.6481 40.2234 42.3818C39.4419 42.2979 38.6834 41.9613 38.0852 41.371Z" fill="url(#paint9_linear_8638_91432)"/>
<path opacity="0.05" d="M31.3266 44.7602L23.7912 37.3363C22.598 36.1608 22.4325 34.3595 23.2885 33.0067C22.2646 32.9071 21.2052 33.2432 20.4209 34.0159C19.0313 35.3849 19.0313 37.6045 20.4209 38.9735L27.9563 46.3973C29.3305 47.7512 31.5529 47.7684 32.9486 46.4359C33.1621 46.2322 33.3399 46.0068 33.4903 45.7692C32.7001 45.6922 31.9313 45.3558 31.3266 44.7602Z" fill="url(#paint10_linear_8638_91432)"/>
<path opacity="0.05" d="M24.3446 47.7744L20.3222 43.7373C19.1251 42.5357 18.96 40.6938 19.8207 39.3121C18.7865 39.2021 17.7136 39.5433 16.9208 40.3389C15.528 41.7369 15.528 44.0033 16.9208 45.4011L20.9432 49.4383C22.3206 50.8208 24.5481 50.8381 25.947 49.4777C26.1594 49.2711 26.3368 49.0428 26.4868 48.802C25.704 48.7184 24.9437 48.3759 24.3446 47.7744Z" fill="url(#paint11_linear_8638_91432)"/>
<path d="M32.8894 73.1123L26.3479 79.6506C25.8818 80.1164 25.1263 80.1164 24.6603 79.6506L6.09732 61.0965C5.6313 60.6307 5.6313 59.8756 6.09732 59.4098L12.6389 52.8714C13.1049 52.4056 13.8604 52.4056 14.3264 52.8714L32.8894 71.4255C33.3555 71.8913 33.3555 72.6465 32.8894 73.1123Z" fill="url(#paint12_linear_8638_91432)"/>
<path opacity="0.05" d="M12.9011 61.0966C12.4353 60.6308 12.4353 59.8757 12.9011 59.4099L16.8816 55.4297L14.3231 52.8714C13.8572 52.4056 13.102 52.4056 12.6362 52.8714L6.09718 59.4099C5.63134 59.8757 5.63134 60.6308 6.09718 61.0966L24.6528 79.6506C25.1187 80.1164 25.8739 80.1164 26.3397 79.6506L28.8982 77.0923L12.9011 61.0966Z" fill="url(#paint13_linear_8638_91432)"/>
<defs>
<linearGradient id="paint0_linear_8638_91432" x1="40" y1="7" x2="40" y2="73" gradientUnits="userSpaceOnUse">
<stop stop-color="#FF8EA4"/>
<stop offset="1" stop-color="#FF2D55"/>
</linearGradient>
<linearGradient id="paint1_linear_8638_91432" x1="66.8089" y1="0" x2="66.8089" y2="32.5" gradientUnits="userSpaceOnUse">
<stop stop-color="#83FF99"/>
<stop offset="1" stop-color="#10B38B"/>
</linearGradient>
<linearGradient id="paint2_linear_8638_91432" x1="62.0294" y1="4.20587" x2="62.0294" y2="32.5" gradientUnits="userSpaceOnUse">
<stop stop-opacity="0"/>
<stop offset="1"/>
</linearGradient>
<linearGradient id="paint3_linear_8638_91432" x1="66.8088" y1="12.1589" x2="66.8088" y2="18.353" gradientUnits="userSpaceOnUse">
<stop stop-color="#4560E6"/>
<stop offset="1" stop-color="#262680"/>
</linearGradient>
<linearGradient id="paint4_linear_8638_91432" x1="60.0067" y1="52.5221" x2="60.0067" y2="80" gradientUnits="userSpaceOnUse">
<stop stop-color="#FFB44B"/>
<stop offset="1" stop-color="#FF9500"/>
</linearGradient>
<linearGradient id="paint5_linear_8638_91432" x1="57.8363" y1="52.5221" x2="57.8363" y2="80" gradientUnits="userSpaceOnUse">
<stop stop-opacity="0"/>
<stop offset="1"/>
</linearGradient>
<linearGradient id="paint6_linear_8638_91432" x1="46.3876" y1="23.6714" x2="46.3876" y2="34.3572" gradientUnits="userSpaceOnUse">
<stop stop-opacity="0"/>
<stop offset="1"/>
</linearGradient>
<linearGradient id="paint7_linear_8638_91432" x1="25.5221" y1="44.3806" x2="25.5221" y2="68.8054" gradientUnits="userSpaceOnUse">
<stop stop-opacity="0"/>
<stop offset="1"/>
</linearGradient>
<linearGradient id="paint8_linear_8638_91432" x1="36.7696" y1="23.0088" x2="36.7696" y2="38.1394" gradientUnits="userSpaceOnUse">
<stop stop-opacity="0"/>
<stop offset="1"/>
</linearGradient>
<linearGradient id="paint9_linear_8638_91432" x1="32.2913" y1="27.9784" x2="32.2913" y2="44.1192" gradientUnits="userSpaceOnUse">
<stop stop-opacity="0"/>
<stop offset="1"/>
</linearGradient>
<linearGradient id="paint10_linear_8638_91432" x1="26.4345" y1="32.9896" x2="26.4345" y2="47.4241" gradientUnits="userSpaceOnUse">
<stop stop-opacity="0"/>
<stop offset="1"/>
</linearGradient>
<linearGradient id="paint11_linear_8638_91432" x1="21.1815" y1="39.292" x2="21.1815" y2="50.4867" gradientUnits="userSpaceOnUse">
<stop stop-opacity="0"/>
<stop offset="1"/>
</linearGradient>
<linearGradient id="paint12_linear_8638_91432" x1="19.4934" y1="52.5221" x2="19.4934" y2="80" gradientUnits="userSpaceOnUse">
<stop stop-color="#FFB44B"/>
<stop offset="1" stop-color="#FF9500"/>
</linearGradient>
<linearGradient id="paint13_linear_8638_91432" x1="17.323" y1="52.5221" x2="17.323" y2="80" gradientUnits="userSpaceOnUse">
<stop stop-opacity="0"/>
<stop offset="1"/>
</linearGradient>
</defs>
</svg>
