<svg width="80" height="80" viewBox="0 0 80 80" fill="none" xmlns="http://www.w3.org/2000/svg">
<path d="M59.4225 71.1464C59.7312 74.0975 57.4168 76.6666 54.4496 76.6666H8.88356C5.91638 76.6666 3.60203 74.0976 3.91068 71.1465L8.61725 26.1465C8.88355 23.6003 11.0301 21.6666 13.5901 21.6666H49.7416C52.3016 21.6666 54.4481 23.6002 54.7145 26.1464L59.4225 71.1464Z" fill="url(#paint0_linear_9517_95542)"/>
<path d="M38.3335 39.1669H41.6668V42.5002H38.3335V39.1669Z" fill="url(#paint1_linear_9517_95542)"/>
<path fill-rule="evenodd" clip-rule="evenodd" d="M46.6668 38.3335C46.6668 36.0324 44.8013 34.1669 42.5001 34.1669H37.5001C35.199 34.1669 33.3335 36.0324 33.3335 38.3335V43.3335C33.3335 45.6347 35.199 47.5002 37.5001 47.5002H42.5001C44.8013 47.5002 46.6668 45.6347 46.6668 43.3335V38.3335ZM42.5001 37.5002C42.9604 37.5002 43.3335 37.8733 43.3335 38.3335V43.3335C43.3335 43.7938 42.9604 44.1669 42.5001 44.1669H37.5001C37.0399 44.1669 36.6668 43.7938 36.6668 43.3335V38.3335C36.6668 37.8733 37.0399 37.5002 37.5001 37.5002H42.5001Z" fill="url(#paint2_linear_9517_95542)"/>
<path d="M41.6668 55.8335H38.3335V59.1669H41.6668V55.8335Z" fill="url(#paint3_linear_9517_95542)"/>
<path fill-rule="evenodd" clip-rule="evenodd" d="M46.6668 55.0002C46.6668 52.699 44.8013 50.8335 42.5001 50.8335H37.5001C35.199 50.8335 33.3335 52.699 33.3335 55.0002V60.0002C33.3335 62.3014 35.199 64.1669 37.5001 64.1669H42.5001C44.8013 64.1669 46.6668 62.3014 46.6668 60.0002V55.0002ZM42.5001 54.1669C42.9604 54.1669 43.3335 54.54 43.3335 55.0002V60.0002C43.3335 60.4604 42.9604 60.8335 42.5001 60.8335H37.5001C37.0399 60.8335 36.6668 60.4604 36.6668 60.0002V55.0002C36.6668 54.54 37.0399 54.1669 37.5001 54.1669H42.5001Z" fill="url(#paint4_linear_9517_95542)"/>
<path d="M21.6668 39.1669H25.0001V42.5002H21.6668V39.1669Z" fill="url(#paint5_linear_9517_95542)"/>
<path fill-rule="evenodd" clip-rule="evenodd" d="M25.8335 34.1669C28.1346 34.1669 30.0001 36.0324 30.0001 38.3335V43.3335C30.0001 45.6347 28.1346 47.5002 25.8335 47.5002H20.8335C18.5323 47.5002 16.6668 45.6347 16.6668 43.3335V38.3335C16.6668 36.0324 18.5323 34.1669 20.8335 34.1669H25.8335ZM26.6668 38.3335C26.6668 37.8733 26.2936 37.5002 25.8335 37.5002H20.8335C20.3733 37.5002 20.0001 37.8733 20.0001 38.3335V43.3335C20.0001 43.7938 20.3733 44.1669 20.8335 44.1669H25.8335C26.2936 44.1669 26.6668 43.7938 26.6668 43.3335V38.3335Z" fill="url(#paint6_linear_9517_95542)"/>
<path d="M30.0001 50.8335H25.4168V55.4169H30.0001V50.8335ZM21.2501 55.4169H25.4168V59.5835H30.0001V64.1669H25.4168V59.5835H21.2501V64.1669H16.6668V59.5835H21.2501V55.4169ZM21.2501 55.4169V50.8335H16.6668V55.4169H21.2501Z" fill="url(#paint7_linear_9517_95542)"/>
<path d="M41.7504 44.4723C42.0203 41.9294 44.1653 40 46.7225 40H68.2771C70.8343 40 72.9793 41.9294 73.2492 44.4722L76.0799 71.1389C76.3935 74.0925 74.0781 76.6667 71.1079 76.6667H43.8921C40.9219 76.6667 38.6066 74.0926 38.9201 71.1389L41.7504 44.4723Z" fill="url(#paint8_linear_9517_95542)"/>
<path fill-rule="evenodd" clip-rule="evenodd" d="M50 45C50.9205 45 51.6667 45.7462 51.6667 46.6667V54.1667C51.6667 57.3883 54.2783 60 57.5 60C60.7217 60 63.3333 57.3883 63.3333 54.1667V46.6667C63.3333 45.7462 64.0795 45 65 45C65.9205 45 66.6667 45.7462 66.6667 46.6667V54.1667C66.6667 59.2293 62.5626 63.3333 57.5 63.3333C52.4374 63.3333 48.3333 59.2293 48.3333 54.1667V46.6667C48.3333 45.7462 49.0795 45 50 45Z" fill="url(#paint9_linear_9517_95542)"/>
<path fill-rule="evenodd" clip-rule="evenodd" d="M20 30C20.9205 30 21.6667 29.2538 21.6667 28.3333V16.6667C21.6667 11.1438 26.1438 6.66667 31.6667 6.66667C37.1895 6.66667 41.6667 11.1438 41.6667 16.6667V28.3333C41.6667 29.2538 42.4129 30 43.3333 30C44.2538 30 45 29.2538 45 28.3333V16.6667C45 9.30287 39.0305 3.33333 31.6667 3.33333C24.3029 3.33333 18.3333 9.30287 18.3333 16.6667V28.3333C18.3333 29.2538 19.0795 30 20 30Z" fill="url(#paint10_linear_9517_95542)"/>
<path d="M76.6667 18.333C76.6667 26.6171 69.951 33.3334 61.6667 33.3334C53.3823 33.3334 46.6667 26.6171 46.6667 18.333C46.6667 10.0489 53.3823 3.33337 61.6667 3.33337C69.951 3.33337 76.6667 10.0489 76.6667 18.333Z" fill="url(#paint11_linear_9517_95542)"/>
<path d="M58.0303 28.3334L68.3333 19.386L62.8788 16.2281L65.303 8.33337L55 17.2807L60.4545 20.4386L58.0303 28.3334Z" fill="url(#paint12_linear_9517_95542)"/>
<defs>
<linearGradient id="paint0_linear_9517_95542" x1="31.6666" y1="20.9791" x2="31.6666" y2="76.6666" gradientUnits="userSpaceOnUse">
<stop stop-color="#4560E6"/>
<stop offset="1" stop-color="#262680"/>
</linearGradient>
<linearGradient id="paint1_linear_9517_95542" x1="31.6668" y1="34.1669" x2="31.6668" y2="64.1669" gradientUnits="userSpaceOnUse">
<stop stop-color="#B5DBFF"/>
<stop offset="1" stop-color="#76E2F8"/>
</linearGradient>
<linearGradient id="paint2_linear_9517_95542" x1="31.6668" y1="34.1669" x2="31.6668" y2="64.1669" gradientUnits="userSpaceOnUse">
<stop stop-color="#B5DBFF"/>
<stop offset="1" stop-color="#76E2F8"/>
</linearGradient>
<linearGradient id="paint3_linear_9517_95542" x1="31.6668" y1="34.1669" x2="31.6668" y2="64.1669" gradientUnits="userSpaceOnUse">
<stop stop-color="#B5DBFF"/>
<stop offset="1" stop-color="#76E2F8"/>
</linearGradient>
<linearGradient id="paint4_linear_9517_95542" x1="31.6668" y1="34.1669" x2="31.6668" y2="64.1669" gradientUnits="userSpaceOnUse">
<stop stop-color="#B5DBFF"/>
<stop offset="1" stop-color="#76E2F8"/>
</linearGradient>
<linearGradient id="paint5_linear_9517_95542" x1="31.6668" y1="34.1669" x2="31.6668" y2="64.1669" gradientUnits="userSpaceOnUse">
<stop stop-color="#B5DBFF"/>
<stop offset="1" stop-color="#76E2F8"/>
</linearGradient>
<linearGradient id="paint6_linear_9517_95542" x1="31.6668" y1="34.1669" x2="31.6668" y2="64.1669" gradientUnits="userSpaceOnUse">
<stop stop-color="#B5DBFF"/>
<stop offset="1" stop-color="#76E2F8"/>
</linearGradient>
<linearGradient id="paint7_linear_9517_95542" x1="31.6668" y1="34.1669" x2="31.6668" y2="64.1669" gradientUnits="userSpaceOnUse">
<stop stop-color="#B5DBFF"/>
<stop offset="1" stop-color="#76E2F8"/>
</linearGradient>
<linearGradient id="paint8_linear_9517_95542" x1="57.5" y1="40" x2="57.5" y2="76.6667" gradientUnits="userSpaceOnUse">
<stop stop-color="#00D998"/>
<stop offset="1" stop-color="#00B373"/>
</linearGradient>
<linearGradient id="paint9_linear_9517_95542" x1="57.5" y1="45" x2="57.5" y2="63.3333" gradientUnits="userSpaceOnUse">
<stop stop-color="#EDF5FF"/>
<stop offset="1" stop-color="#D8ECFF"/>
</linearGradient>
<linearGradient id="paint10_linear_9517_95542" x1="31.6667" y1="30" x2="31.6667" y2="3.33333" gradientUnits="userSpaceOnUse">
<stop stop-color="#B5DBFF"/>
<stop offset="1" stop-color="#76E2F8"/>
</linearGradient>
<linearGradient id="paint11_linear_9517_95542" x1="61.6667" y1="3.33337" x2="61.6667" y2="33.3334" gradientUnits="userSpaceOnUse">
<stop stop-color="#FFCC00"/>
<stop offset="1" stop-color="#FFF5CC"/>
</linearGradient>
<linearGradient id="paint12_linear_9517_95542" x1="61.6667" y1="8.08337" x2="61.6667" y2="28.3334" gradientUnits="userSpaceOnUse">
<stop stop-color="#4560E6"/>
<stop offset="1" stop-color="#262680"/>
</linearGradient>
</defs>
</svg>
