<svg width="48" height="48" viewBox="0 0 48 48" fill="none" xmlns="http://www.w3.org/2000/svg">
<path opacity="0.2" d="M10.5 7.5H37.5C37.8978 7.5 38.2794 7.65804 38.5607 7.93934C38.842 8.22064 39 8.60218 39 9V37.5C39 38.6935 38.5259 39.8381 37.682 40.682C36.8381 41.5259 35.6935 42 34.5 42H13.5C12.3065 42 11.1619 41.5259 10.318 40.682C9.47411 39.8381 9 38.6935 9 37.5V9C9 8.60218 9.15804 8.22064 9.43934 7.93934C9.72064 7.65804 10.1022 7.5 10.5 7.5Z" fill="url(#paint0_linear_8602_91953)"/>
<path d="M18 22.5C17.1716 22.5 16.5 23.1716 16.5 24C16.5 24.8284 17.1716 25.5 18 25.5H30C30.8284 25.5 31.5 24.8284 31.5 24C31.5 23.1716 30.8284 22.5 30 22.5H18Z" fill="url(#paint1_linear_8602_91953)"/>
<path d="M18 28.5C17.1716 28.5 16.5 29.1716 16.5 30C16.5 30.8284 17.1716 31.5 18 31.5H30C30.8284 31.5 31.5 30.8284 31.5 30C31.5 29.1716 30.8284 28.5 30 28.5H18Z" fill="url(#paint2_linear_8602_91953)"/>
<path fill-rule="evenodd" clip-rule="evenodd" d="M16.5 4.5C16.5 3.67157 15.8284 3 15 3C14.1716 3 13.5 3.67157 13.5 4.5V6H10.5C9.70435 6 8.94129 6.31607 8.37868 6.87868C7.81607 7.44129 7.5 8.20435 7.5 9V37.5C7.5 39.0913 8.13214 40.6174 9.25736 41.7426C10.3826 42.8679 11.9087 43.5 13.5 43.5H34.5C36.0913 43.5 37.6174 42.8679 38.7426 41.7426C39.8679 40.6174 40.5 39.0913 40.5 37.5V9C40.5 8.20435 40.1839 7.44129 39.6213 6.87868C39.0587 6.31607 38.2956 6 37.5 6H34.5V4.5C34.5 3.67157 33.8284 3 33 3C32.1716 3 31.5 3.67157 31.5 4.5V6H25.5V4.5C25.5 3.67157 24.8284 3 24 3C23.1716 3 22.5 3.67157 22.5 4.5V6H16.5V4.5ZM31.5 9H25.5V10.5C25.5 11.3284 24.8284 12 24 12C23.1716 12 22.5 11.3284 22.5 10.5V9H16.5V10.5C16.5 11.3284 15.8284 12 15 12C14.1716 12 13.5 11.3284 13.5 10.5V9H10.5L10.5 37.5C10.5 38.2957 10.8161 39.0587 11.3787 39.6213C11.9413 40.1839 12.7044 40.5 13.5 40.5H34.5C35.2957 40.5 36.0587 40.1839 36.6213 39.6213C37.1839 39.0587 37.5 38.2957 37.5 37.5V9H34.5V10.5C34.5 11.3284 33.8284 12 33 12C32.1716 12 31.5 11.3284 31.5 10.5V9Z" fill="url(#paint3_linear_8602_91953)"/>
<defs>
<linearGradient id="paint0_linear_8602_91953" x1="24" y1="7.5" x2="24" y2="42" gradientUnits="userSpaceOnUse">
<stop stop-color="#8F8DFF"/>
<stop offset="1" stop-color="#5657D6"/>
</linearGradient>
<linearGradient id="paint1_linear_8602_91953" x1="24" y1="3" x2="24" y2="43.5" gradientUnits="userSpaceOnUse">
<stop stop-color="#8F8DFF"/>
<stop offset="1" stop-color="#5657D6"/>
</linearGradient>
<linearGradient id="paint2_linear_8602_91953" x1="24" y1="3" x2="24" y2="43.5" gradientUnits="userSpaceOnUse">
<stop stop-color="#8F8DFF"/>
<stop offset="1" stop-color="#5657D6"/>
</linearGradient>
<linearGradient id="paint3_linear_8602_91953" x1="24" y1="3" x2="24" y2="43.5" gradientUnits="userSpaceOnUse">
<stop stop-color="#8F8DFF"/>
<stop offset="1" stop-color="#5657D6"/>
</linearGradient>
</defs>
</svg>
