<svg width="48" height="48" viewBox="0 0 48 48" fill="none" xmlns="http://www.w3.org/2000/svg">
<path opacity="0.2" d="M24.9375 16.9875C27.4781 18.4213 29.5787 20.5219 31.0125 23.0625C36.1312 18.5813 42.1875 11.9813 42.1875 5.8125C36.0187 5.8125 29.4187 11.8687 24.9375 16.9875Z" fill="url(#paint0_linear_9853_1401)"/>
<path fill-rule="evenodd" clip-rule="evenodd" d="M23.7761 16.0382C22.5134 17.4837 21.4192 18.8523 20.5472 19.994C20.1858 19.8832 19.8179 19.7904 19.4449 19.7162C17.2626 19.2821 15.0006 19.5049 12.9449 20.3564C10.8892 21.2078 9.13222 22.6498 7.89605 24.4998C6.65989 26.3499 6.00008 28.525 6.00008 30.75C6.00008 33.8324 5.14746 36.0098 4.33218 37.3957C3.92199 38.0931 3.51713 38.5967 3.22611 38.9168C3.08071 39.0767 2.96424 39.1903 2.89054 39.2587C2.85372 39.2929 2.82767 39.3158 2.81414 39.3274L2.80413 39.3359C2.31332 39.7347 2.12504 40.399 2.33464 40.9965C2.5455 41.5976 3.11305 42 3.75008 42H17.2501C19.4751 42 21.6502 41.3402 23.5002 40.104C25.3503 38.8679 26.7922 37.1109 27.6437 35.0552C28.4952 32.9995 28.718 30.7375 28.2839 28.5552C28.2097 28.182 28.1168 27.814 28.006 27.4524C29.1443 26.583 30.5082 25.4927 31.949 24.2347C31.9851 24.206 32.0195 24.1759 32.0523 24.1444C33.7264 22.6772 35.499 20.9865 37.1385 19.1552C40.562 15.3313 43.6873 10.5879 43.6873 5.8125C43.6873 4.98407 43.0157 4.3125 42.1873 4.3125C37.4119 4.3125 32.6685 7.4378 28.8446 10.8614C27.0087 12.505 25.3141 14.2823 23.8443 15.9601C23.8208 15.9852 23.798 16.0112 23.7761 16.0382ZM25.2394 18.9393C24.5367 19.7722 23.8983 20.5668 23.3369 21.2889C24.0082 21.7207 24.6349 22.2249 25.205 22.7951C25.7751 23.3651 26.2792 23.9917 26.711 24.6629C27.4331 24.1014 28.2277 23.463 29.0606 22.7603C28.0374 21.2587 26.7411 19.9625 25.2394 18.9393ZM27.2356 16.6741C28.8162 17.8013 30.1986 19.1835 31.3258 20.7641C32.5328 19.6508 33.7554 18.4363 34.9033 17.1542C37.7438 13.9815 39.9258 10.6138 40.5238 7.47602C37.386 8.07396 34.0183 10.256 30.8456 13.0965C29.5634 14.2444 28.3489 15.467 27.2356 16.6741ZM20.6006 23.211C20.5244 23.1856 20.4496 23.1538 20.377 23.1155C19.8893 22.9158 19.3814 22.7623 18.8596 22.6585C17.2592 22.3402 15.6004 22.5036 14.0929 23.128C12.5855 23.7524 11.297 24.8098 10.3905 26.1666C9.48394 27.5233 9.00008 29.1183 9.00008 30.75C9.00008 34.4176 7.97771 37.1152 6.91799 38.9168L6.86863 39H17.2501C18.8818 39 20.4768 38.5162 21.8335 37.6096C23.1902 36.7031 24.2477 35.4146 24.8721 33.9071C25.4965 32.3997 25.6599 30.7409 25.3416 29.1405C25.2379 28.6191 25.0845 28.1116 24.885 27.6243C24.8462 27.5507 24.814 27.475 24.7883 27.3978C24.3792 26.4778 23.803 25.6356 23.0837 24.9164C22.364 24.1967 21.5213 23.6202 20.6006 23.211Z" fill="url(#paint1_linear_9853_1401)"/>
<defs>
<linearGradient id="paint0_linear_9853_1401" x1="33.5625" y1="5.8125" x2="33.5625" y2="23.0625" gradientUnits="userSpaceOnUse">
<stop stop-color="#8F8DFF"/>
<stop offset="1" stop-color="#5657D6"/>
</linearGradient>
<linearGradient id="paint1_linear_9853_1401" x1="22.9687" y1="4.3125" x2="22.9687" y2="42" gradientUnits="userSpaceOnUse">
<stop stop-color="#8F8DFF"/>
<stop offset="1" stop-color="#5657D6"/>
</linearGradient>
</defs>
</svg>
