<svg width="64" height="64" viewBox="0 0 64 64" fill="none" xmlns="http://www.w3.org/2000/svg">
<g opacity="0.2">
<path d="M26 19C26 22.866 22.866 26 19 26C15.134 26 12 22.866 12 19C12 15.134 15.134 12 19 12C22.866 12 26 15.134 26 19Z" fill="url(#paint0_linear_9853_1450)"/>
<path d="M52 45C52 48.866 48.866 52 45 52C41.134 52 38 48.866 38 45C38 41.134 41.134 38 45 38C48.866 38 52 41.134 52 45Z" fill="url(#paint1_linear_9853_1450)"/>
</g>
<path fill-rule="evenodd" clip-rule="evenodd" d="M10 19C10 14.0294 14.0294 10 19 10C23.9706 10 28 14.0294 28 19C28 23.9706 23.9706 28 19 28C14.0294 28 10 23.9706 10 19ZM19 14C16.2386 14 14 16.2386 14 19C14 21.7614 16.2386 24 19 24C21.7614 24 24 21.7614 24 19C24 16.2386 21.7614 14 19 14Z" fill="url(#paint2_linear_9853_1450)"/>
<path d="M51.4142 15.4142L15.4142 51.4142C14.6332 52.1953 13.3668 52.1953 12.5858 51.4142C11.8047 50.6332 11.8047 49.3668 12.5858 48.5858L48.5858 12.5858C49.3668 11.8047 50.6332 11.8047 51.4142 12.5858C52.1953 13.3668 52.1953 14.6332 51.4142 15.4142Z" fill="url(#paint3_linear_9853_1450)"/>
<path fill-rule="evenodd" clip-rule="evenodd" d="M45 36C40.0294 36 36 40.0294 36 45C36 49.9706 40.0294 54 45 54C49.9706 54 54 49.9706 54 45C54 40.0294 49.9706 36 45 36ZM40 45C40 42.2386 42.2386 40 45 40C47.7614 40 50 42.2386 50 45C50 47.7614 47.7614 50 45 50C42.2386 50 40 47.7614 40 45Z" fill="url(#paint4_linear_9853_1450)"/>
<defs>
<linearGradient id="paint0_linear_9853_1450" x1="32" y1="12" x2="32" y2="52" gradientUnits="userSpaceOnUse">
<stop stop-color="#E1A7FF"/>
<stop offset="1" stop-color="#AF52DE"/>
</linearGradient>
<linearGradient id="paint1_linear_9853_1450" x1="32" y1="12" x2="32" y2="52" gradientUnits="userSpaceOnUse">
<stop stop-color="#E1A7FF"/>
<stop offset="1" stop-color="#AF52DE"/>
</linearGradient>
<linearGradient id="paint2_linear_9853_1450" x1="32" y1="10" x2="32" y2="54" gradientUnits="userSpaceOnUse">
<stop stop-color="#E1A7FF"/>
<stop offset="1" stop-color="#AF52DE"/>
</linearGradient>
<linearGradient id="paint3_linear_9853_1450" x1="32" y1="10" x2="32" y2="54" gradientUnits="userSpaceOnUse">
<stop stop-color="#E1A7FF"/>
<stop offset="1" stop-color="#AF52DE"/>
</linearGradient>
<linearGradient id="paint4_linear_9853_1450" x1="32" y1="10" x2="32" y2="54" gradientUnits="userSpaceOnUse">
<stop stop-color="#E1A7FF"/>
<stop offset="1" stop-color="#AF52DE"/>
</linearGradient>
</defs>
</svg>
