<svg width="48" height="48" viewBox="0 0 48 48" fill="none" xmlns="http://www.w3.org/2000/svg">
<g opacity="0.2">
<path d="M21 10.5C21 9.67157 20.3284 9 19.5 9H10.5C9.67157 9 9 9.67157 9 10.5V19.5C9 20.3284 9.67157 21 10.5 21H19.5C20.3284 21 21 20.3284 21 19.5V10.5Z" fill="url(#paint0_linear_9853_2194)"/>
<path d="M21 28.5C21 27.6716 20.3284 27 19.5 27H10.5C9.67157 27 9 27.6716 9 28.5V37.5C9 38.3284 9.67157 39 10.5 39H19.5C20.3284 39 21 38.3284 21 37.5V28.5Z" fill="url(#paint1_linear_9853_2194)"/>
<path d="M27 10.5C27 9.67157 27.6716 9 28.5 9H37.5C38.3284 9 39 9.67157 39 10.5V19.5C39 20.3284 38.3284 21 37.5 21H28.5C27.6716 21 27 20.3284 27 19.5V10.5Z" fill="url(#paint2_linear_9853_2194)"/>
</g>
<path fill-rule="evenodd" clip-rule="evenodd" d="M7.5 10.5C7.5 8.84315 8.84315 7.5 10.5 7.5H19.5C21.1569 7.5 22.5 8.84315 22.5 10.5V19.5C22.5 21.1569 21.1569 22.5 19.5 22.5H10.5C8.84315 22.5 7.5 21.1569 7.5 19.5V10.5ZM19.5 10.5H10.5V19.5H19.5V10.5Z" fill="url(#paint3_linear_9853_2194)"/>
<path fill-rule="evenodd" clip-rule="evenodd" d="M7.5 28.5C7.5 26.8431 8.84315 25.5 10.5 25.5H19.5C21.1569 25.5 22.5 26.8431 22.5 28.5V37.5C22.5 39.1569 21.1569 40.5 19.5 40.5H10.5C8.84315 40.5 7.5 39.1569 7.5 37.5V28.5ZM19.5 28.5H10.5V37.5H19.5V28.5Z" fill="url(#paint4_linear_9853_2194)"/>
<path fill-rule="evenodd" clip-rule="evenodd" d="M28.5 7.5C26.8431 7.5 25.5 8.84315 25.5 10.5V19.5C25.5 21.1569 26.8431 22.5 28.5 22.5H37.5C39.1569 22.5 40.5 21.1569 40.5 19.5V10.5C40.5 8.84315 39.1569 7.5 37.5 7.5H28.5ZM28.5 10.5H37.5V19.5H28.5V10.5Z" fill="url(#paint5_linear_9853_2194)"/>
<path d="M27 25.5C27.8284 25.5 28.5 26.1716 28.5 27V33C28.5 33.8284 27.8284 34.5 27 34.5C26.1716 34.5 25.5 33.8284 25.5 33V27C25.5 26.1716 26.1716 25.5 27 25.5Z" fill="url(#paint6_linear_9853_2194)"/>
<path d="M34.5 27C34.5 26.1716 33.8284 25.5 33 25.5C32.1716 25.5 31.5 26.1716 31.5 27V37.5H27C26.1716 37.5 25.5 38.1716 25.5 39C25.5 39.8284 26.1716 40.5 27 40.5H33C33.8284 40.5 34.5 39.8284 34.5 39V31.5H39C39.8284 31.5 40.5 30.8284 40.5 30C40.5 29.1716 39.8284 28.5 39 28.5H34.5V27Z" fill="url(#paint7_linear_9853_2194)"/>
<path d="M40.5 36C40.5 35.1716 39.8284 34.5 39 34.5C38.1716 34.5 37.5 35.1716 37.5 36V39C37.5 39.8284 38.1716 40.5 39 40.5C39.8284 40.5 40.5 39.8284 40.5 39V36Z" fill="url(#paint8_linear_9853_2194)"/>
<defs>
<linearGradient id="paint0_linear_9853_2194" x1="24" y1="9" x2="24" y2="39" gradientUnits="userSpaceOnUse">
<stop stop-color="#8F8DFF"/>
<stop offset="1" stop-color="#5657D6"/>
</linearGradient>
<linearGradient id="paint1_linear_9853_2194" x1="24" y1="9" x2="24" y2="39" gradientUnits="userSpaceOnUse">
<stop stop-color="#8F8DFF"/>
<stop offset="1" stop-color="#5657D6"/>
</linearGradient>
<linearGradient id="paint2_linear_9853_2194" x1="24" y1="9" x2="24" y2="39" gradientUnits="userSpaceOnUse">
<stop stop-color="#8F8DFF"/>
<stop offset="1" stop-color="#5657D6"/>
</linearGradient>
<linearGradient id="paint3_linear_9853_2194" x1="24" y1="7.5" x2="24" y2="40.5" gradientUnits="userSpaceOnUse">
<stop stop-color="#8F8DFF"/>
<stop offset="1" stop-color="#5657D6"/>
</linearGradient>
<linearGradient id="paint4_linear_9853_2194" x1="24" y1="7.5" x2="24" y2="40.5" gradientUnits="userSpaceOnUse">
<stop stop-color="#8F8DFF"/>
<stop offset="1" stop-color="#5657D6"/>
</linearGradient>
<linearGradient id="paint5_linear_9853_2194" x1="24" y1="7.5" x2="24" y2="40.5" gradientUnits="userSpaceOnUse">
<stop stop-color="#8F8DFF"/>
<stop offset="1" stop-color="#5657D6"/>
</linearGradient>
<linearGradient id="paint6_linear_9853_2194" x1="24" y1="7.5" x2="24" y2="40.5" gradientUnits="userSpaceOnUse">
<stop stop-color="#8F8DFF"/>
<stop offset="1" stop-color="#5657D6"/>
</linearGradient>
<linearGradient id="paint7_linear_9853_2194" x1="24" y1="7.5" x2="24" y2="40.5" gradientUnits="userSpaceOnUse">
<stop stop-color="#8F8DFF"/>
<stop offset="1" stop-color="#5657D6"/>
</linearGradient>
<linearGradient id="paint8_linear_9853_2194" x1="24" y1="7.5" x2="24" y2="40.5" gradientUnits="userSpaceOnUse">
<stop stop-color="#8F8DFF"/>
<stop offset="1" stop-color="#5657D6"/>
</linearGradient>
</defs>
</svg>
