<svg width="65" height="64" viewBox="0 0 65 64" fill="none" xmlns="http://www.w3.org/2000/svg">
<g opacity="0.2">
<path d="M24.3334 28V24H8.33337V28C8.33337 30.1217 9.17623 32.1566 10.6765 33.6569C12.1768 35.1571 14.2116 36 16.3334 36C18.4551 36 20.4899 35.1571 21.9902 33.6569C23.4905 32.1566 24.3334 30.1217 24.3334 28Z" fill="url(#paint0_linear_9853_2144)"/>
<path d="M56.3334 28V24H40.3334V28C40.3334 30.1217 41.1762 32.1566 42.6765 33.6569C44.1768 35.1571 46.2116 36 48.3334 36C50.4551 36 52.4899 35.1571 53.9902 33.6569C55.4905 32.1566 56.3334 30.1217 56.3334 28Z" fill="url(#paint1_linear_9853_2144)"/>
</g>
<path fill-rule="evenodd" clip-rule="evenodd" d="M15.3506 8C12.6717 8 10.3174 9.77586 9.58145 12.3517L6.42323 23.4054C6.36483 23.5933 6.33337 23.793 6.33337 24V28C6.33337 30.6522 7.38694 33.1957 9.26231 35.0711C9.59888 35.4076 9.95699 35.7178 10.3334 36V51.9999C10.3334 53.0608 10.7548 54.0782 11.5049 54.8283C12.2551 55.5785 13.2725 55.9999 14.3334 55.9999H50.3334C51.3942 55.9999 52.4117 55.5785 53.1618 54.8283C53.912 54.0782 54.3334 53.0608 54.3334 51.9999V36C54.7098 35.7178 55.0679 35.4076 55.4044 35.0711C57.2798 33.1957 58.3334 30.6522 58.3334 28V24C58.3334 23.9684 58.3326 23.9369 58.3312 23.9057L58.2439 23.4068L55.0853 12.3517C54.3494 9.77587 51.9951 8 49.3162 8H15.3506ZM15.3506 12H26.1595H26.4868H49.3162C50.2091 12 50.9939 12.592 51.2392 13.4506L53.6081 21.7417L53.6819 22H53.1816H10.9849L13.4275 13.4506C13.6729 12.592 14.4576 12 15.3506 12ZM13.5618 33.3215C13.4189 33.2102 13.2606 33.1178 13.0905 33.0482C12.7321 32.818 12.3966 32.5485 12.0907 32.2426C10.9655 31.1174 10.3334 29.5913 10.3334 28V26H22.3334V28C22.3334 29.5913 21.7012 31.1174 20.576 32.2426C19.4508 33.3679 17.9247 34 16.3334 34C15.3594 34 14.4099 33.7632 13.5618 33.3215ZM14.3334 51.9999V37.798C14.9868 37.9314 15.6565 38 16.3334 38C18.9855 38 21.5291 36.9464 23.4044 35.0711C23.741 34.7345 24.0511 34.3764 24.3334 34.0001C24.6157 34.3764 24.9257 34.7345 25.2623 35.0711C27.1377 36.9464 29.6812 38 32.3334 38C34.9855 38 37.5291 36.9464 39.4044 35.0711C39.741 34.7345 40.0511 34.3764 40.3334 34.0001C40.6157 34.3764 40.9257 34.7345 41.2623 35.0711C43.1377 36.9464 45.6812 38 48.3334 38C49.0102 38 49.68 37.9314 50.3334 37.798V51.9999H14.3334ZM51.5762 33.0482C51.4061 33.1178 51.2478 33.2102 51.105 33.3215C50.2568 33.7632 49.3073 34 48.3334 34C46.7421 34 45.216 33.3679 44.0907 32.2426C42.9655 31.1174 42.3334 29.5913 42.3334 28V26H54.3334V28C54.3334 29.5913 53.7012 31.1174 52.576 32.2426C52.2701 32.5485 51.9346 32.818 51.5762 33.0482ZM38.3334 26V28C38.3334 29.5913 37.7012 31.1174 36.576 32.2426C35.4508 33.3679 33.9247 34 32.3334 34C30.7421 34 29.216 33.3679 28.0907 32.2426C26.9655 31.1174 26.3334 29.5913 26.3334 28V26H38.3334Z" fill="url(#paint2_linear_9853_2144)"/>
<defs>
<linearGradient id="paint0_linear_9853_2144" x1="32.3334" y1="24" x2="32.3334" y2="36" gradientUnits="userSpaceOnUse">
<stop stop-color="#8F8DFF"/>
<stop offset="1" stop-color="#5657D6"/>
</linearGradient>
<linearGradient id="paint1_linear_9853_2144" x1="32.3334" y1="24" x2="32.3334" y2="36" gradientUnits="userSpaceOnUse">
<stop stop-color="#8F8DFF"/>
<stop offset="1" stop-color="#5657D6"/>
</linearGradient>
<linearGradient id="paint2_linear_9853_2144" x1="32.3334" y1="8" x2="32.3334" y2="55.9999" gradientUnits="userSpaceOnUse">
<stop stop-color="#8F8DFF"/>
<stop offset="1" stop-color="#5657D6"/>
</linearGradient>
</defs>
</svg>
