<svg width="65" height="64" viewBox="0 0 65 64" fill="none" xmlns="http://www.w3.org/2000/svg">
<path opacity="0.2" d="M32.6667 8C27.8118 7.99858 23.0708 9.47568 19.0698 12.2362C15.0688 14.9967 11.9961 18.9107 10.2577 23.4613C8.51923 28.0118 8.19681 32.9846 9.33302 37.723C10.4692 42.4613 13.0106 46.7421 16.6214 50V50C18.1259 47.0257 20.4215 44.5277 23.2536 42.7829C26.0857 41.0381 29.3438 40.1146 32.6667 40.1147C30.6895 40.1147 28.7566 39.5261 27.1126 38.4234C25.4686 37.3206 24.1872 35.7532 23.4306 33.9194C22.6739 32.0856 22.476 30.0677 22.8617 28.121C23.2474 26.1742 24.1996 24.386 25.5977 22.9824C26.9958 21.5789 28.7771 20.6231 30.7164 20.2358C32.6556 19.8486 34.6657 20.0474 36.4924 20.8069C38.3191 21.5665 39.8805 22.8529 40.979 24.5032C42.0774 26.1536 42.6638 28.094 42.6638 30.0789C42.6638 32.7405 41.6105 35.2932 39.7357 37.1753C37.8609 39.0574 35.3181 40.1147 32.6667 40.1147C35.9896 40.1146 39.2477 41.0381 42.0798 42.7829C44.9119 44.5277 47.2075 47.0257 48.712 50C52.3228 46.7421 54.8642 42.4613 56.0004 37.723C57.1366 32.9846 56.8142 28.0118 55.0757 23.4613C53.3373 18.9107 50.2646 14.9967 46.2636 12.2362C42.2626 9.47568 37.5215 7.99858 32.6667 8Z" fill="url(#paint0_linear_9853_1462)"/>
<path d="M23.6084 7.60281C28.8739 5.64574 34.6317 5.44664 40.0198 7.03533C45.4079 8.62401 50.1366 11.915 53.498 16.4157C56.8594 20.9165 58.6728 26.3848 58.6666 32.0023V33.1716L61.2525 30.5858C62.0335 29.8047 63.2999 29.8047 64.0809 30.5858C64.8619 31.3668 64.8619 32.6332 64.0809 33.4142L58.0865 39.4086C58.0657 39.4296 58.0444 39.4501 58.0227 39.4701C57.8622 39.6184 57.6833 39.7355 57.4937 39.8216C57.2416 39.9362 56.9616 40.0001 56.6666 40.0001C56.35 40.0001 56.0506 39.9265 55.7845 39.7955C55.6527 39.7308 55.5265 39.6506 55.4087 39.555C55.3492 39.5068 55.2925 39.4553 55.2389 39.4006L49.2525 33.4142C48.4714 32.6332 48.4714 31.3668 49.2525 30.5858C50.0335 29.8047 51.2999 29.8047 52.0809 30.5858L54.6666 33.1715V31.9979C54.6718 27.2447 53.1374 22.6176 50.2932 18.8093C47.4489 15.001 43.4477 12.2163 38.8885 10.872C34.3294 9.52775 29.4574 9.69622 25.002 11.3522C20.5466 13.0082 16.7473 16.0626 14.1729 20.0583C13.5746 20.9868 12.3369 21.2546 11.4084 20.6563C10.4799 20.0581 10.2121 18.8204 10.8104 17.8918C13.8529 13.1697 18.3429 9.55989 23.6084 7.60281Z" fill="url(#paint1_linear_9853_1462)"/>
<path fill-rule="evenodd" clip-rule="evenodd" d="M25.2418 39.4278C22.4554 37.2303 20.6667 33.8241 20.6667 30C20.6667 23.3726 26.0393 18 32.6667 18C39.2941 18 44.6667 23.3726 44.6667 30C44.6667 33.8241 42.8779 37.2304 40.0915 39.4278C41.1412 39.8475 42.1576 40.3571 43.129 40.9533C45.5076 42.4133 47.5456 44.3495 49.121 46.6296C49.8651 45.7911 50.5475 44.8931 51.1604 43.9418C51.7587 43.0132 52.9964 42.7455 53.9249 43.3438C54.8535 43.942 55.1212 45.1797 54.523 46.1082C51.4804 50.8304 46.9904 54.4402 41.7249 56.3973C36.4594 58.3543 30.7017 58.5534 25.3136 56.9648C19.9254 55.3761 15.1968 52.0851 11.8354 47.5843C8.47415 43.0839 6.66081 37.616 6.6667 31.9989V30.8284L4.0809 33.4142C3.29985 34.1953 2.03352 34.1953 1.25247 33.4142C0.471425 32.6332 0.471425 31.3668 1.25247 30.5858L7.25247 24.5858C7.44575 24.3925 7.66875 24.2471 7.90676 24.1494C8.13747 24.0546 8.38982 24.0016 8.65435 24C8.65846 24 8.66258 24 8.6667 24L8.67269 24C9.20254 24.0016 9.68392 24.2092 10.0409 24.5469C10.056 24.5611 10.0708 24.5756 10.0854 24.5903L16.0809 30.5858C16.8619 31.3668 16.8619 32.6332 16.0809 33.4142C15.2999 34.1953 14.0335 34.1953 13.2525 33.4142L10.6667 30.8284V32.0022C10.6615 36.7554 12.1959 41.3825 15.0402 45.1908C15.4116 45.6881 15.8027 46.1679 16.2123 46.6294C17.7877 44.3494 19.8256 42.4133 22.2042 40.9533C23.1756 40.3571 24.192 39.8475 25.2418 39.4278ZM24.6667 30C24.6667 25.5817 28.2484 22 32.6667 22C37.085 22 40.6667 25.5817 40.6667 30C40.6667 34.3748 37.1552 37.9294 32.797 37.999L32.6666 37.9985L32.5363 37.999C28.1782 37.9293 24.6667 34.3747 24.6667 30ZM19.1724 49.4016C21.3291 51.0765 23.7925 52.346 26.4448 53.1281C31.004 54.4723 35.8759 54.3039 40.3313 52.6479C42.4419 51.8634 44.4052 50.7652 46.1608 49.4017C44.8606 47.3608 43.1104 45.6353 41.0365 44.3624C38.5588 42.8416 35.7143 42.025 32.809 41.9992C32.7617 41.9997 32.7142 42 32.6667 42C32.6191 42 32.5717 41.9997 32.5242 41.9992C29.6189 42.025 26.7744 42.8415 24.2967 44.3624C22.2228 45.6353 20.4726 47.3607 19.1724 49.4016Z" fill="url(#paint2_linear_9853_1462)"/>
<defs>
<linearGradient id="paint0_linear_9853_1462" x1="32.6667" y1="8" x2="32.6667" y2="50" gradientUnits="userSpaceOnUse">
<stop stop-color="#FF8EA4"/>
<stop offset="1" stop-color="#FF2D55"/>
</linearGradient>
<linearGradient id="paint1_linear_9853_1462" x1="32.6667" y1="5.97388" x2="32.6667" y2="58.0262" gradientUnits="userSpaceOnUse">
<stop stop-color="#FF8EA4"/>
<stop offset="1" stop-color="#FF2D55"/>
</linearGradient>
<linearGradient id="paint2_linear_9853_1462" x1="32.6667" y1="5.97388" x2="32.6667" y2="58.0262" gradientUnits="userSpaceOnUse">
<stop stop-color="#FF8EA4"/>
<stop offset="1" stop-color="#FF2D55"/>
</linearGradient>
</defs>
</svg>
