<svg width="65" height="64" viewBox="0 0 65 64" fill="none" xmlns="http://www.w3.org/2000/svg">
<path opacity="0.2" d="M32.3334 8C27.4785 7.99858 22.7374 9.47568 18.7364 12.2362C14.7355 14.9967 11.6628 18.9107 9.92435 23.4613C8.18591 28.0118 7.8635 32.9846 8.9997 37.723C10.1359 42.4613 12.6773 46.7421 16.2881 50C17.7926 47.0257 20.0882 44.5277 22.9203 42.7829C25.7524 41.0381 29.0105 40.1146 32.3334 40.1147C30.3561 40.1147 28.4233 39.5261 26.7793 38.4234C25.1353 37.3206 23.8539 35.7532 23.0973 33.9194C22.3406 32.0856 22.1426 30.0677 22.5284 28.121C22.9141 26.1742 23.8663 24.386 25.2644 22.9824C26.6625 21.5789 28.4438 20.6231 30.383 20.2358C32.3223 19.8486 34.3324 20.0474 36.1591 20.8069C37.9858 21.5665 39.5471 22.8529 40.6456 24.5032C41.7441 26.1536 42.3305 28.094 42.3305 30.0789C42.3305 32.7405 41.2772 35.2932 39.4024 37.1753C37.5276 39.0574 34.9848 40.1147 32.3334 40.1147C35.6563 40.1146 38.9144 41.0381 41.7465 42.7829C44.5786 44.5277 46.8741 47.0257 48.3787 50C51.9895 46.7421 54.5308 42.4613 55.667 37.723C56.8032 32.9846 56.4808 28.0118 54.7424 23.4613C53.004 18.9107 49.9313 14.9967 45.9303 12.2362C41.9293 9.47568 37.1882 7.99858 32.3334 8Z" fill="url(#paint0_linear_9853_1454)"/>
<path d="M50.3334 6C51.4379 6 52.3334 6.89543 52.3334 8V12H56.3334C57.4379 12 58.3334 12.8954 58.3334 14C58.3334 15.1046 57.4379 16 56.3334 16H52.3334V20C52.3334 21.1046 51.4379 22 50.3334 22C49.2288 22 48.3334 21.1046 48.3334 20V16H44.3334C43.2288 16 42.3334 15.1046 42.3334 14C42.3334 12.8954 43.2288 12 44.3334 12H48.3334V8C48.3334 6.89543 49.2288 6 50.3334 6Z" fill="url(#paint1_linear_9853_1454)"/>
<path fill-rule="evenodd" clip-rule="evenodd" d="M20.3334 30C20.3334 33.8241 22.1221 37.2303 24.9085 39.4278C23.8587 39.8475 22.8423 40.3571 21.8709 40.9533C19.4975 42.4102 17.4631 44.3411 15.8892 46.6147C12.9724 43.3328 11.0973 39.2443 10.5216 34.8716C9.88949 30.0701 10.8594 25.1941 13.2809 21C15.7023 16.8059 19.4401 13.528 23.9144 11.6747C28.3887 9.82134 33.3495 9.49619 38.0274 10.7496C39.0944 11.0355 40.191 10.4024 40.4769 9.33543C40.7628 8.2685 40.1296 7.17182 39.0627 6.88594C33.5342 5.40459 27.6715 5.78886 22.3836 7.97914C17.0958 10.1694 12.6785 14.0433 9.81675 19C6.95501 23.9567 5.80878 29.7192 6.55584 35.3937C7.30291 41.0682 9.90151 46.3377 13.9486 50.3848C14.2384 50.6745 14.5343 50.9568 14.8363 51.2315C14.9052 51.3037 14.9801 51.3713 15.0608 51.4334C18.9395 54.881 23.7716 57.0972 28.9397 57.7776C34.6142 58.5246 40.3767 57.3784 45.3334 54.5167C46.868 53.6307 48.2989 52.5955 49.6081 51.4316C49.687 51.3706 49.7605 51.3044 49.8282 51.2337C52.6439 48.6725 54.8803 45.5082 56.3543 41.9498C58.5446 36.662 58.9288 30.7992 57.4475 25.2707C57.1616 24.2038 56.0649 23.5706 54.998 23.8565C53.9311 24.1424 53.2979 25.2391 53.5838 26.306C54.8372 30.9839 54.5121 35.9447 52.6588 40.419C51.7133 42.7017 50.397 44.7926 48.7775 46.6148C47.2035 44.3412 45.1691 42.4102 42.7956 40.9533C41.8243 40.3571 40.8079 39.8475 39.7582 39.4278C42.5446 37.2304 44.3334 33.8241 44.3334 30C44.3334 23.3726 38.9608 18 32.3334 18C25.706 18 20.3334 23.3726 20.3334 30ZM32.3334 22C27.9151 22 24.3334 25.5817 24.3334 30C24.3334 34.3747 27.8449 37.9293 32.203 37.999L32.3333 37.9985L32.4637 37.999C36.8219 37.9294 40.3334 34.3748 40.3334 30C40.3334 25.5817 36.7517 22 32.3334 22ZM45.8164 49.3842C44.5173 47.3509 42.7712 45.6317 40.7032 44.3624C38.2255 42.8416 35.381 42.025 32.4757 41.9992C32.4283 41.9997 32.3809 42 32.3334 42C32.2858 42 32.2383 41.9997 32.1909 41.9992C29.2856 42.025 26.4411 42.8415 23.9634 44.3624C21.8954 45.6317 20.1493 47.3509 18.8503 49.3841C21.9194 51.7645 25.5785 53.3005 29.4618 53.8118C34.2633 54.4439 39.1393 53.474 43.3334 51.0526C44.2018 50.5512 45.031 49.9933 45.8164 49.3842Z" fill="url(#paint2_linear_9853_1454)"/>
<defs>
<linearGradient id="paint0_linear_9853_1454" x1="32.3334" y1="8" x2="32.3334" y2="50" gradientUnits="userSpaceOnUse">
<stop stop-color="#05BAFF"/>
<stop offset="1" stop-color="#4F5FFF"/>
</linearGradient>
<linearGradient id="paint1_linear_9853_1454" x1="32.3334" y1="6" x2="32.3334" y2="58" gradientUnits="userSpaceOnUse">
<stop stop-color="#05BAFF"/>
<stop offset="1" stop-color="#4F5FFF"/>
</linearGradient>
<linearGradient id="paint2_linear_9853_1454" x1="32.3334" y1="6" x2="32.3334" y2="58" gradientUnits="userSpaceOnUse">
<stop stop-color="#05BAFF"/>
<stop offset="1" stop-color="#4F5FFF"/>
</linearGradient>
</defs>
</svg>
