<svg width="89" height="88" viewBox="0 0 89 88" fill="none" xmlns="http://www.w3.org/2000/svg">
<path opacity="0.2" d="M14.15 30.25H74.65V16.5C74.65 15.7707 74.3602 15.0712 73.8445 14.5555C73.3288 14.0397 72.6293 13.75 71.9 13.75H16.9C16.1706 13.75 15.4711 14.0397 14.9554 14.5555C14.4397 15.0712 14.15 15.7707 14.15 16.5V30.25Z" fill="url(#paint0_linear_8747_721)"/>
<path d="M58.6608 46.0015C59.7662 44.96 59.818 43.2196 58.7765 42.1142C57.735 41.0088 55.9946 40.957 54.8891 41.9985L40.7283 55.3406L33.9176 48.8799C32.8157 47.8346 31.0751 47.8805 30.0298 48.9824C28.9846 50.0843 29.0305 51.8249 30.1324 52.8701L38.8292 61.1201C39.8876 62.1241 41.5459 62.127 42.6077 61.1265L58.6608 46.0015Z" fill="url(#paint1_linear_8747_721)"/>
<path fill-rule="evenodd" clip-rule="evenodd" d="M60.9 5.5C62.4187 5.5 63.65 6.73122 63.65 8.25V11H71.9C74.9375 11 77.4 13.4624 77.4 16.5V71.5C77.4 74.5376 74.9375 77 71.9 77H16.9C13.8624 77 11.4 74.5376 11.4 71.5V16.5C11.4 13.4624 13.8624 11 16.9 11H25.15V8.25C25.15 6.73122 26.3812 5.5 27.9 5.5C29.4187 5.5 30.65 6.73122 30.65 8.25V11H58.15V8.25C58.15 6.73122 59.3812 5.5 60.9 5.5ZM63.65 16.5H71.9V27.5H16.9V16.5H25.15V19.25C25.15 20.7688 26.3812 22 27.9 22C29.4187 22 30.65 20.7688 30.65 19.25V16.5H58.15V19.25C58.15 20.7688 59.3812 22 60.9 22C62.4187 22 63.65 20.7688 63.65 19.25V16.5ZM71.9 33H16.9V71.5H71.9V33Z" fill="url(#paint2_linear_8747_721)"/>
<defs>
<linearGradient id="paint0_linear_8747_721" x1="44.4" y1="13.75" x2="44.4" y2="30.25" gradientUnits="userSpaceOnUse">
<stop stop-color="#8F8DFF"/>
<stop offset="1" stop-color="#5657D6"/>
</linearGradient>
<linearGradient id="paint1_linear_8747_721" x1="44.4" y1="5.5" x2="44.4" y2="77" gradientUnits="userSpaceOnUse">
<stop stop-color="#8F8DFF"/>
<stop offset="1" stop-color="#5657D6"/>
</linearGradient>
<linearGradient id="paint2_linear_8747_721" x1="44.4" y1="5.5" x2="44.4" y2="77" gradientUnits="userSpaceOnUse">
<stop stop-color="#8F8DFF"/>
<stop offset="1" stop-color="#5657D6"/>
</linearGradient>
</defs>
</svg>
