<svg width="89" height="88" viewBox="0 0 89 88" fill="none" xmlns="http://www.w3.org/2000/svg">
<path opacity="0.2" d="M44.6001 74.25C44.6001 74.25 10.2251 55 10.2251 31.625C10.2251 27.4928 11.6568 23.4881 14.2766 20.2925C16.8964 17.0968 20.5425 14.9076 24.5945 14.0971C28.6465 13.2867 32.8542 13.9053 36.5016 15.8475C40.149 17.7897 43.0108 20.9356 44.6001 24.75C46.1894 20.9356 49.0512 17.7897 52.6986 15.8475C56.346 13.9053 60.5537 13.2867 64.6057 14.0971C68.6577 14.9076 72.3038 17.0968 74.9236 20.2925C77.5434 23.4881 78.9751 27.4928 78.9751 31.625C78.9751 55 44.6001 74.25 44.6001 74.25Z" fill="url(#paint0_linear_8747_725)"/>
<path fill-rule="evenodd" clip-rule="evenodd" d="M42.8296 76.4042C42.9626 76.4817 43.0661 76.5412 43.1379 76.5822C43.1379 76.5822 44.0062 77 44.6001 77C45.194 77 46.0623 76.5822 46.0623 76.5822C46.1341 76.5412 46.2376 76.4817 46.3706 76.4042C46.6366 76.2492 47.021 76.022 47.5068 75.7264C48.4781 75.1353 49.8567 74.2694 51.5071 73.1581C54.8027 70.9391 59.2087 67.7239 63.6273 63.7472C72.298 55.9436 81.7251 44.5783 81.7251 31.625C81.7251 26.857 80.0731 22.2363 77.0503 18.549C74.0274 14.8617 69.8204 12.3356 65.145 11.4006C60.4696 10.4655 55.6146 11.1792 51.4061 13.4202C48.7192 14.8509 46.4018 16.8478 44.6001 19.25C42.7984 16.8478 40.481 14.8509 37.7941 13.4202C33.5856 11.1792 28.7306 10.4655 24.0552 11.4006C19.3798 12.3356 15.1728 14.8617 12.1499 18.549C9.12706 22.2363 7.4751 26.857 7.4751 31.625C7.4751 44.5783 16.9022 55.9436 25.5729 63.7472C29.9915 67.7239 34.3975 70.9391 37.6931 73.1581C39.3435 74.2694 40.7221 75.1353 41.6934 75.7264C42.1792 76.022 42.5636 76.2492 42.8296 76.4042ZM35.209 18.2748C32.1228 16.6314 28.5625 16.108 25.1338 16.7937C21.7052 17.4795 18.6201 19.3319 16.4033 22.036C14.1865 24.74 12.9751 28.1285 12.9751 31.625C12.9751 42.0468 20.7355 51.994 29.2523 59.6591C33.4275 63.4168 37.6152 66.4751 40.7649 68.5959C42.3371 69.6545 43.6441 70.4751 44.5527 71.0281L44.6001 71.0569L44.6475 71.0281C45.5561 70.4751 46.863 69.6545 48.4353 68.5959C51.585 66.4751 55.7727 63.4168 59.9479 59.6591C68.4647 51.994 76.2251 42.0468 76.2251 31.625C76.2251 28.1285 75.0137 24.74 72.7969 22.036C70.5801 19.3319 67.495 17.4795 64.0664 16.7937C60.6377 16.108 57.0774 16.6314 53.9912 18.2748C50.9049 19.9182 48.4834 22.5802 47.1386 25.8077C46.7116 26.8325 45.7103 27.5 44.6001 27.5C43.4899 27.5 42.4886 26.8325 42.0616 25.8077C40.7168 22.5802 38.2953 19.9182 35.209 18.2748Z" fill="url(#paint1_linear_8747_725)"/>
<defs>
<linearGradient id="paint0_linear_8747_725" x1="44.6001" y1="13.75" x2="44.6001" y2="74.25" gradientUnits="userSpaceOnUse">
<stop stop-color="#FF78A0"/>
<stop offset="1" stop-color="#FF2FB8"/>
</linearGradient>
<linearGradient id="paint1_linear_8747_725" x1="44.6001" y1="11" x2="44.6001" y2="77" gradientUnits="userSpaceOnUse">
<stop stop-color="#FF78A0"/>
<stop offset="1" stop-color="#FF2FB8"/>
</linearGradient>
</defs>
</svg>
