<svg width="88" height="88" viewBox="0 0 88 88" fill="none" xmlns="http://www.w3.org/2000/svg">
<path opacity="0.2" d="M33 82.5L38.5 55L16.5 46.75L55 5.5L49.5 33L71.5 41.25L33 82.5Z" fill="url(#paint0_linear_8747_717)"/>
<path fill-rule="evenodd" clip-rule="evenodd" d="M56.2556 3.05337C57.3494 3.6147 57.9377 4.83379 57.6966 6.0393L52.6552 31.2462L72.4656 38.6751C73.3253 38.9975 73.9674 39.7277 74.1772 40.6216C74.387 41.5155 74.1369 42.4551 73.5104 43.1264L35.0104 84.3764C34.1716 85.2751 32.8381 85.5079 31.7444 84.9466C30.6506 84.3853 30.0623 83.1662 30.3034 81.9607L35.3448 56.7538L15.5344 49.3249C14.6747 49.0025 14.0326 48.2723 13.8227 47.3784C13.6129 46.4845 13.8631 45.5448 14.4896 44.8736L52.9896 3.6236C53.8284 2.72485 55.1619 2.49204 56.2556 3.05337ZM21.3169 45.6193L39.4656 52.4251C40.728 52.8985 41.461 54.2172 41.1966 55.5393L37.5952 73.5461L66.683 42.3806L48.5344 35.5749C47.272 35.1015 46.539 33.7827 46.8034 32.4607L50.4048 14.4538L21.3169 45.6193Z" fill="url(#paint1_linear_8747_717)"/>
<defs>
<linearGradient id="paint0_linear_8747_717" x1="44" y1="5.5" x2="44" y2="82.5" gradientUnits="userSpaceOnUse">
<stop stop-color="#30E7AA"/>
<stop offset="1" stop-color="#1FCC92"/>
</linearGradient>
<linearGradient id="paint1_linear_8747_717" x1="44" y1="2.74988" x2="44" y2="85.2501" gradientUnits="userSpaceOnUse">
<stop stop-color="#30E7AA"/>
<stop offset="1" stop-color="#1FCC92"/>
</linearGradient>
</defs>
</svg>
