<svg width="89" height="88" viewBox="0 0 89 88" fill="none" xmlns="http://www.w3.org/2000/svg">
<g opacity="0.2">
<path d="M36.55 26.125C36.55 31.4407 32.2407 35.75 26.925 35.75C21.6092 35.75 17.3 31.4407 17.3 26.125C17.3 20.8093 21.6092 16.5 26.925 16.5C32.2407 16.5 36.55 20.8093 36.55 26.125Z" fill="url(#paint0_linear_7639_89601)"/>
<path d="M72.3 61.875C72.3 67.1907 67.9907 71.5 62.675 71.5C57.3592 71.5 53.05 67.1907 53.05 61.875C53.05 56.5593 57.3592 52.25 62.675 52.25C67.9907 52.25 72.3 56.5593 72.3 61.875Z" fill="url(#paint1_linear_7639_89601)"/>
</g>
<path fill-rule="evenodd" clip-rule="evenodd" d="M14.55 26.125C14.55 19.2905 20.0905 13.75 26.925 13.75C33.7595 13.75 39.3 19.2905 39.3 26.125C39.3 32.9595 33.7595 38.5 26.925 38.5C20.0905 38.5 14.55 32.9595 14.55 26.125ZM26.925 19.25C23.128 19.25 20.05 22.328 20.05 26.125C20.05 29.922 23.128 33 26.925 33C30.7219 33 33.8 29.922 33.8 26.125C33.8 22.328 30.7219 19.25 26.925 19.25Z" fill="url(#paint2_linear_7639_89601)"/>
<path d="M71.4945 21.1945L21.9945 70.6945C20.9206 71.7685 19.1794 71.7685 18.1054 70.6945C17.0315 69.6206 17.0315 67.8794 18.1054 66.8055L67.6054 17.3055C68.6794 16.2315 70.4206 16.2315 71.4945 17.3055C72.5685 18.3794 72.5685 20.1206 71.4945 21.1945Z" fill="url(#paint3_linear_7639_89601)"/>
<path fill-rule="evenodd" clip-rule="evenodd" d="M62.675 49.5C55.8405 49.5 50.3 55.0405 50.3 61.875C50.3 68.7095 55.8405 74.25 62.675 74.25C69.5095 74.25 75.05 68.7095 75.05 61.875C75.05 55.0405 69.5095 49.5 62.675 49.5ZM55.8 61.875C55.8 58.078 58.878 55 62.675 55C66.4719 55 69.55 58.078 69.55 61.875C69.55 65.672 66.4719 68.75 62.675 68.75C58.878 68.75 55.8 65.672 55.8 61.875Z" fill="url(#paint4_linear_7639_89601)"/>
<defs>
<linearGradient id="paint0_linear_7639_89601" x1="44.8" y1="16.5" x2="44.8" y2="71.5" gradientUnits="userSpaceOnUse">
<stop stop-color="#FFB44B"/>
<stop offset="1" stop-color="#FF9500"/>
</linearGradient>
<linearGradient id="paint1_linear_7639_89601" x1="44.8" y1="16.5" x2="44.8" y2="71.5" gradientUnits="userSpaceOnUse">
<stop stop-color="#FFB44B"/>
<stop offset="1" stop-color="#FF9500"/>
</linearGradient>
<linearGradient id="paint2_linear_7639_89601" x1="44.8" y1="13.75" x2="44.8" y2="74.25" gradientUnits="userSpaceOnUse">
<stop stop-color="#FFB44B"/>
<stop offset="1" stop-color="#FF9500"/>
</linearGradient>
<linearGradient id="paint3_linear_7639_89601" x1="44.8" y1="13.75" x2="44.8" y2="74.25" gradientUnits="userSpaceOnUse">
<stop stop-color="#FFB44B"/>
<stop offset="1" stop-color="#FF9500"/>
</linearGradient>
<linearGradient id="paint4_linear_7639_89601" x1="44.8" y1="13.75" x2="44.8" y2="74.25" gradientUnits="userSpaceOnUse">
<stop stop-color="#FFB44B"/>
<stop offset="1" stop-color="#FF9500"/>
</linearGradient>
</defs>
</svg>
