<svg width="89" height="88" viewBox="0 0 89 88" fill="none" xmlns="http://www.w3.org/2000/svg">
<path opacity="0.2" d="M13.9501 39.4281V19.25C13.9501 18.5207 14.2398 17.8212 14.7555 17.3055C15.2713 16.7897 15.9707 16.5 16.7001 16.5H71.7001C72.4294 16.5 73.1289 16.7897 73.6446 17.3055C74.1603 17.8212 74.4501 18.5207 74.4501 19.25V39.4281C74.4501 68.3031 49.9407 77.8594 45.0594 79.475C44.5049 79.6803 43.8952 79.6803 43.3407 79.475C38.4594 77.8594 13.9501 68.3031 13.9501 39.4281Z" fill="url(#paint0_linear_8747_735)"/>
<path d="M61.2233 37.7398C62.3222 36.6914 62.3632 34.9507 61.3148 33.8518C60.2665 32.7528 58.5258 32.7119 57.4268 33.7602L39.1486 51.1978L30.975 43.3869C29.877 42.3375 28.1362 42.377 27.0869 43.4751C26.0376 44.5731 26.0771 46.3138 27.1751 47.3632L37.247 56.9882C38.3093 58.0033 39.982 58.004 41.0452 56.9898L61.2233 37.7398Z" fill="url(#paint1_linear_8747_735)"/>
<path fill-rule="evenodd" clip-rule="evenodd" d="M16.7001 13.75C15.2414 13.75 13.8424 14.3295 12.811 15.3609C11.7795 16.3924 11.2001 17.7913 11.2001 19.25V39.4281C11.2001 70.1897 37.317 80.3704 42.4384 82.0731C43.5774 82.481 44.8227 82.481 45.9617 82.0731C51.0831 80.3704 77.2001 70.1897 77.2001 39.4281V19.25C77.2001 17.7913 76.6206 16.3924 75.5892 15.3609C74.5577 14.3295 73.1588 13.75 71.7001 13.75H16.7001ZM16.7001 19.25L71.7001 19.25V39.4281C71.7001 66.3304 48.9447 75.2914 44.2001 76.8627C39.4555 75.2914 16.7001 66.3304 16.7001 39.4281L16.7001 19.25Z" fill="url(#paint2_linear_8747_735)"/>
<defs>
<linearGradient id="paint0_linear_8747_735" x1="44.2001" y1="16.5" x2="44.2001" y2="79.629" gradientUnits="userSpaceOnUse">
<stop stop-color="#4BA1FF"/>
<stop offset="1" stop-color="#007AFF"/>
</linearGradient>
<linearGradient id="paint1_linear_8747_735" x1="44.2001" y1="13.75" x2="44.2001" y2="82.379" gradientUnits="userSpaceOnUse">
<stop stop-color="#4BA1FF"/>
<stop offset="1" stop-color="#007AFF"/>
</linearGradient>
<linearGradient id="paint2_linear_8747_735" x1="44.2001" y1="13.75" x2="44.2001" y2="82.379" gradientUnits="userSpaceOnUse">
<stop stop-color="#4BA1FF"/>
<stop offset="1" stop-color="#007AFF"/>
</linearGradient>
</defs>
</svg>
